<?xml version="1.0" encoding="UTF-8" standalone="no"?>
<svg width="73px" height="44px" viewBox="0 0 73 44" version="1.1" xmlns="http://www.w3.org/2000/svg" xmlns:xlink="http://www.w3.org/1999/xlink">
    <defs></defs>
    <g id="Page-1" stroke="none" stroke-width="1" fill="none" fill-rule="evenodd">
        <g id="Artboard-1-Copy-3" transform="translate(-15.000000, -28.000000)" fill="#2b3f44">
            <path d="M15,33.0045213 C15,30.2406005 17.2446579,28 20.0032113,28 L82.9967887,28 C85.759986,28 88,30.2424579 88,33.0045213 L88,66.9954787 C88,69.7593995 85.7553421,72 82.9967887,72 L20.0032113,72 C17.240014,72 15,69.7575421 15,66.9954787 L15,33.0045213 Z M37.8500625,50.7338125 C37.8500625,49.706625 38.70625,50.0415 39.0815,48.158125 C39.23825,47.37675 39.9946875,48.1450625 40.1395625,46.362625 C40.1395625,45.6513125 39.7263125,45.474375 39.7263125,45.474375 C39.7263125,45.474375 39.9365,44.4234375 40.0184375,43.6135625 C40.1205625,42.605375 39.39025,40 35.5,40 C31.60975,40 30.8794375,42.605375 30.9815625,43.6135625 C31.0646875,44.424625 31.2736875,45.474375 31.2736875,45.474375 C31.2736875,45.474375 30.861625,45.6525 30.861625,46.362625 C31.0053125,48.1450625 31.76175,47.37675 31.9185,48.158125 C32.2949375,50.0415 33.1499375,49.706625 33.1499375,50.7338125 C33.1499375,52.4461875 32.2545625,53.2465625 29.4520625,54.1941875 C26.638875,55.1465625 26,56.1155625 26,56.7781875 L26,57.890875 C26,58.503625 26.5308125,59 27.1875,59 L35.5,59 L43.8125,59 C44.4691875,59 45,58.503625 45,57.8896875 L45,56.777 C45,56.114375 44.361125,55.145375 41.549125,54.193 C38.7454375,53.2465625 37.8500625,52.4461875 37.8500625,50.7338125 Z M53,42 L72,42 L72,44 L53,44 L53,42 Z M53,48 L76,48 L76,50 L53,50 L53,48 Z M53,54 L68,54 L68,56 L53,56 L53,54 Z" id="Rectangle-5"></path>
        </g>
    </g>
</svg>
