<svg xmlns="http://www.w3.org/2000/svg" xmlns:xlink="http://www.w3.org/1999/xlink" width="32" height="32" viewBox="0 0 32 32">
    <defs>
        <path id="a" d="M12 0c6.624.007 11.993 5.376 12 12 0 6.627-5.373 12-12 12S0 18.627 0 12 5.373 0 12 0zm.375 15.5c-.758 0-1.375.617-1.375 1.375s.617 1.375 1.375 1.375 1.375-.617 1.375-1.375-.617-1.375-1.375-1.375zm0-10.5a1 1 0 0 0-1 1v7.5l.007.117a1 1 0 0 0 1.993-.117V6l-.007-.117A1 1 0 0 0 12.375 5z"/>
    </defs>
    <g fill="none" fill-rule="evenodd" transform="translate(4 4)">
        <path fill="#FFF" fill-rule="nonzero" stroke="#FFF" stroke-width="2" d="M12-1h.001C19.177-.992 24.992 4.823 25 12c0 7.18-5.82 13-13 13S-1 19.18-1 12 4.82-1 12-1z"/>
        <mask id="b" fill="#fff">
            <use xlink:href="#a"/>
        </mask>
        <use fill="#000" fill-rule="nonzero" xlink:href="#a"/>
        <g fill="#FF9D0B" mask="url(#b)">
            <path d="M-4-4h32v32H-4V-4z"/>
        </g>
    </g>
</svg>
