<svg width="50" height="50" focusable="false" viewBox="0 0 50 50" fill="none" xmlns="http://www.w3.org/2000/svg">
<title></title>
<g id="shield-Group 11">
<g id="shield-Oval" filter="url(#shield-filter0_d)">
<circle cx="25" cy="24" r="24" fill="#DFE3E8"/>
</g>
<g id="shield-key">
<path id="shield-Shape" fill-rule="evenodd" clip-rule="evenodd" d="M23.2993 35.75C23.7382 35.916 24.1983 36 24.6667 36C25.135 36 25.5952 35.916 26.034 35.75L27.0915 35.35C32.0215 33.4831 35.3332 28.7363 35.3332 23.5375V15.9288C35.3393 15.0499 34.8162 14.2449 33.9943 13.8749C31.1001 12.631 28.0271 12 24.8627 12L24.6738 12.001L24.4513 12C21.3001 12 18.2322 12.631 15.3268 13.8799C14.5161 14.2449 13.995 15.0479 14.0001 15.9238V23.5375C14.0001 28.7363 17.3118 33.4831 22.2418 35.35L23.2993 35.75ZM15.9485 15.2489C18.6497 14.0889 21.5144 13.4999 24.4635 13.4999L24.6738 13.5009L24.8637 13.4999C27.8168 13.4999 30.6816 14.0869 33.3726 15.2439C33.6398 15.3649 33.8115 15.6308 33.8094 15.9238V23.5375C33.8094 28.1203 30.8898 32.3042 26.545 33.9511L25.4875 34.3511C25.2233 34.4501 24.948 34.5011 24.6667 34.5011C24.3853 34.5011 24.11 34.4501 23.8458 34.3501L22.7883 33.9501C18.4435 32.3052 15.5239 28.1203 15.5239 23.5375V15.9188C15.5218 15.6288 15.6915 15.3649 15.9485 15.2489Z" fill="#0062B0"/>
<path id="shield-Path" d="M22.9991 25.9991C22.7324 25.9991 22.4818 25.8952 22.2933 25.7068C22.1049 25.5193 22 25.2688 22 25.0022C22 24.7392 22.1004 24.4904 22.2836 24.3021C22.4818 24.104 22.7324 24 22.9991 24C23.2667 24 23.5182 24.104 23.7067 24.2932C23.8951 24.4807 23.9991 24.7321 24 24.9996C24 25.2661 23.8969 25.5175 23.7076 25.7068C23.5182 25.896 23.2676 26 23 26H22.9991V25.9991Z" fill="#0062B0"/>
<path id="shield-Shape_2" fill-rule="evenodd" clip-rule="evenodd" d="M21.6866 29.6722C22.2415 29.8893 22.8221 29.9998 23.4135 29.9998C25.3556 29.9998 27.1347 28.7878 27.8427 26.9816C28.2169 26.0252 28.2702 24.9701 27.9977 23.9851L31.3131 20.6698C31.7565 20.2276 32.0003 19.6383 32.0003 19.0116C32.0003 18.3849 31.7565 17.7956 31.3131 17.3535C30.8698 16.9103 30.2814 16.6665 29.6544 16.6665C29.0275 16.6665 28.438 16.9113 27.9947 17.3544L24.6802 20.6737C24.2675 20.5602 23.844 20.502 23.4184 20.502C22.7638 20.502 22.124 20.6362 21.5168 20.9017C20.3547 21.409 19.4592 22.3398 18.9971 23.5202C18.5341 24.7016 18.5588 25.9916 19.0672 27.1533C19.5747 28.315 20.5058 29.2102 21.6866 29.6722ZM20.3755 24.0611C20.8622 22.8194 22.0875 21.9854 23.4234 21.9854C23.8301 21.9854 24.229 22.0614 24.6072 22.2085C24.6941 22.242 24.7849 22.2598 24.8787 22.2598C25.0742 22.2598 25.2647 22.1809 25.403 22.0427L29.0403 18.4007C29.2042 18.2368 29.4204 18.147 29.6524 18.147C29.8845 18.147 30.1007 18.2378 30.2646 18.4007C30.4285 18.5645 30.5183 18.7807 30.5183 19.0126C30.5183 19.2445 30.4285 19.4617 30.2646 19.6255L26.6243 23.2656C26.4851 23.4037 26.4071 23.5982 26.4091 23.7976C26.41 23.8992 26.4318 23.9989 26.4663 24.0749C26.7615 24.8388 26.7596 25.6807 26.4614 26.4437C25.9746 27.6853 24.7503 28.5193 23.4135 28.5193C23.0077 28.5193 22.6078 28.4433 22.2267 28.2943C20.5492 27.638 19.7189 25.738 20.3755 24.0611Z" fill="#0062B0"/>
</g>
</g>
<defs>
<filter id="shield-filter0_d" x="0" y="0" width="50" height="50" filterUnits="userSpaceOnUse" color-interpolation-filters="sRGB">
<feFlood flood-opacity="0" result="BackgroundImageFix"/>
<feColorMatrix in="SourceAlpha" type="matrix" values="0 0 0 0 0 0 0 0 0 0 0 0 0 0 0 0 0 0 127 0"/>
<feOffset dy="1"/>
<feGaussianBlur stdDeviation="0.5"/>
<feColorMatrix type="matrix" values="0 0 0 0 0 0 0 0 0 0 0 0 0 0 0 0 0 0 0.5 0"/>
<feBlend mode="normal" in2="BackgroundImageFix" result="effect1_dropShadow"/>
<feBlend mode="normal" in="SourceGraphic" in2="effect1_dropShadow" result="shape"/>
</filter>
</defs>
</svg>
