<svg xmlns="http://www.w3.org/2000/svg" xmlns:xlink="http://www.w3.org/1999/xlink" width="32" height="32" viewBox="0 0 32 32">
    <defs>
        <path id="4f5727nd1a" d="M17.5 9.5c3.866 0 7 3.134 7 7s-3.134 7-7 7-7-3.134-7-7 3.134-7 7-7zM6.25 0c2.21 0 4 1.79 4 4 0 1.227-.552 2.325-1.422 3.058C9.994 7.585 11 8.47 11.672 9.64c.275.48.11 1.09-.37 1.365-.478.275-1.09.11-1.364-.37-.959-1.67-2.92-2.486-4.781-1.99-1.795.477-3.063 2.061-3.152 3.9L2 12.75V14h1.25c.474 0 .877.332.977.785l.018.115.66 6.6h2.689l.234-2.332c.05-.51.477-.893.978-.9l.116.004c.51.05.893.477.9.978l-.004.116-.323 3.233c-.047.472-.417.84-.878.894L8.5 23.5H4c-.474 0-.877-.332-.977-.785l-.018-.115-.661-6.6H1c-.513 0-.936-.386-.993-.883L0 15v-2.25c.001-2.484 1.466-4.695 3.673-5.693C2.803 6.326 2.25 5.227 2.25 4c0-2.21 1.79-4 4-4zM17.5 11.5c-2.761 0-5 2.239-5 5s2.239 5 5 5 5-2.239 5-5-2.239-5-5-5zm0 1c.513 0 .936.386.993.883l.007.117v2h2c.552 0 1 .448 1 1 0 .513-.386.936-.883.993l-.117.007h-2v2c0 .552-.448 1-1 1-.513 0-.936-.386-.993-.883L16.5 19.5v-2h-2c-.552 0-1-.448-1-1 0-.513.386-.936.883-.993l.117-.007h2v-2c0-.552.448-1 1-1zM6.25 2c-1.105 0-2 .895-2 2s.895 2 2 2 2-.895 2-2-.895-2-2-2z"/>
    </defs>
    <g fill="none" fill-rule="evenodd" transform="translate(4 4)">
        <mask id="vop37c516b" fill="#fff">
            <use xlink:href="#4f5727nd1a"/>
        </mask>
        <use fill="#000" fill-rule="nonzero" xlink:href="#4f5727nd1a"/>
        <g fill="#0077C8" mask="url(#vop37c516b)">
            <path d="M0 0H32V32H0z" transform="translate(-4 -4)"/>
        </g>
    </g>
</svg>
