<svg width="48" height="48" viewBox="0 0 48 48" fill="none" xmlns="http://www.w3.org/2000/svg">
<path fill-rule="evenodd" clip-rule="evenodd" d="M33.0492 28.9725L39.738 35.6613C40.8623 36.786 40.8623 38.609 39.738 39.7337C38.6054 40.8385 36.7983 40.8385 35.6657 39.7337L28.9769 33.0463C22.6621 37.2681 14.1746 36.0111 9.35444 30.1403C4.53427 24.2695 4.95358 15.6998 10.3239 10.3276C15.6942 4.95538 24.2638 4.53303 30.1363 9.35113C36.0088 14.1692 37.2687 22.6562 33.0492 28.9725ZM31.2218 20.7775C31.2218 15.0116 26.5477 10.3375 20.7818 10.3375C15.0186 10.3438 10.3482 15.0142 10.3418 20.7775C10.3418 26.5433 15.016 31.2175 20.7818 31.2175C26.5477 31.2175 31.2218 26.5433 31.2218 20.7775Z" fill="black"/>
<mask id="mask0" maskUnits="userSpaceOnUse" x="6" y="6" width="35" height="35">
<path fill-rule="evenodd" clip-rule="evenodd" d="M33.0492 28.9725L39.738 35.6613C40.8623 36.786 40.8623 38.609 39.738 39.7337C38.6054 40.8385 36.7983 40.8385 35.6657 39.7337L28.9769 33.0463C22.6621 37.2681 14.1746 36.0111 9.35444 30.1403C4.53427 24.2695 4.95358 15.6998 10.3239 10.3276C15.6942 4.95538 24.2638 4.53303 30.1363 9.35113C36.0088 14.1692 37.2687 22.6562 33.0492 28.9725ZM31.2218 20.7775C31.2218 15.0116 26.5477 10.3375 20.7818 10.3375C15.0186 10.3438 10.3482 15.0142 10.3418 20.7775C10.3418 26.5433 15.016 31.2175 20.7818 31.2175C26.5477 31.2175 31.2218 26.5433 31.2218 20.7775Z" fill="white"/>
</mask>
<g mask="url(#mask0)">
<rect width="48" height="48" fill="#0077C8"/>
</g>
</svg>
