<svg width="29" height="30" viewBox="0 0 29 30" fill="none" xmlns="http://www.w3.org/2000/svg">
<path d="M13.2768 30C11.5708 30 9.90747 29.5187 8.46558 28.608C8.00007 28.3133 7.86001 27.6947 8.15346 27.2293C8.33887 26.9373 8.65499 26.764 9.00046 26.764C9.18986 26.764 9.37393 26.8173 9.534 26.9187C10.6544 27.6267 11.9496 28.0013 13.2754 28.0013H17.1636C18.7269 28.0013 20.1915 27.3947 21.2919 26.2947C22.3923 25.1933 22.9992 23.7307 22.9992 22.1733V12C22.9992 11.448 23.4474 11 23.9996 11C24.5518 11 25 11.448 25 12V22.172C25 24.2627 24.185 26.228 22.7058 27.7067C21.2279 29.1853 19.2618 30 17.169 30H13.2768Z" fill="#AFAFAF"/>
<path d="M4.16349 22C3.83836 22 3.53526 21.8333 3.35521 21.556L1.50032 18.6947C0.833228 17.6667 0.833228 16.3373 1.50032 15.308C1.54824 15.2333 1.59876 15.1627 1.65316 15.0933C2.21792 14.3667 3.06247 13.9507 3.96919 13.9507C4.63887 13.9507 5.29689 14.188 5.8189 14.6187L7.39918 15.92V5C7.39918 3.34533 8.70616 2 10.3136 2C10.6867 2 11.0481 2.072 11.3875 2.212C11.7255 0.937333 12.8576 0 14.1996 0C15.5415 0 16.6749 0.938667 17.0117 2.212C17.3511 2.072 17.7138 2 18.0855 2C19.693 2 21 3.34533 21 5C21 5.552 20.5648 6 20.0285 6C19.4923 6 19.057 5.552 19.057 5C19.057 4.448 18.6218 4 18.0855 4C17.5493 4 17.1141 4.448 17.1141 5V8C17.1141 8.552 16.6788 9 16.1426 9C15.6063 9 15.1711 8.552 15.1711 8V3C15.1711 2.448 14.7359 2 14.1996 2C13.6633 2 13.2281 2.448 13.2281 3V12C13.2281 12.552 12.7929 13 12.2566 13C11.7204 13 11.2851 12.552 11.2851 12V5C11.2851 4.448 10.8499 4 10.3136 4C9.77738 4 9.34216 4.448 9.34216 5V18C9.34216 18.3813 9.12584 18.736 8.79165 18.9013C8.66212 18.9653 8.51575 19 8.37197 19C8.15176 19 7.93674 18.9227 7.76576 18.7813L4.60648 16.1813C4.42255 16.0293 4.20364 15.9507 3.97178 15.9507C3.93292 15.9507 3.89406 15.9533 3.8552 15.9573C3.58318 15.988 3.33966 16.1267 3.16998 16.3453C3.15055 16.3693 3.13371 16.3933 3.11817 16.4187C2.8876 16.7733 2.8876 17.2307 3.11817 17.5853L4.97176 20.444C5.26839 20.9027 5.14792 21.5253 4.70363 21.8307C4.54301 21.9413 4.35649 22 4.16349 22Z" fill="#AFAFAF"/>
<path d="M1.00024 30C0.729562 30 0.466887 29.888 0.278881 29.6933C0.0935417 29.5013 -0.00512807 29.248 0.000205428 28.9813C0.00553893 28.7147 0.113542 28.4653 0.306882 28.28L27.3077 2.28C27.4957 2.1 27.7411 2 28.0011 2C28.2718 2 28.5344 2.112 28.7211 2.30667C28.9065 2.49867 29.0051 2.752 28.9998 3.01867C28.9945 3.28533 28.8865 3.53467 28.6945 3.72L1.69359 29.72C1.50692 29.9013 1.26025 30 1.00024 30Z" fill="#AFAFAF"/>
</svg>
