<svg xmlns="http://www.w3.org/2000/svg" xmlns:xlink="http://www.w3.org/1999/xlink" width="32" height="32" viewBox="0 0 32 32">
    <defs>
        <path id="a" d="M12 0c6.624.007 11.993 5.376 12 12 0 6.627-5.373 12-12 12S0 18.627 0 12 5.373 0 12 0zm-.583 8.75h-.667l-.117.007a1 1 0 0 0 .117 1.993h.667v5l.003.19c.06 1.637.89 2.81 2.5 2.81h.83l.117-.007a1 1 0 0 0-.117-1.993h-.83l-.072-.004c-.297-.033-.431-.287-.431-.996v-5l-.006-.15a2 2 0 0 0-1.994-1.85zm.833-5a1.5 1.5 0 1 0 0 3 1.5 1.5 0 0 0 0-3z"/>
    </defs>
    <g fill="none" fill-rule="evenodd" transform="translate(4 4)">
        <path fill="#FFF" fill-rule="nonzero" stroke="#FFF" stroke-width="2" d="M12-1h.001C19.177-.992 24.992 4.823 25 12c0 7.18-5.82 13-13 13S-1 19.18-1 12 4.82-1 12-1z"/>
        <mask id="b" fill="#fff">
            <use xlink:href="#a"/>
        </mask>
        <g fill="#00A8CA" mask="url(#b)">
            <path d="M-4-4h32v32H-4V-4z"/>
        </g>
    </g>
</svg>
