<?xml version="1.0" encoding="utf-8"?>
<!-- Generator: Adobe Illustrator 21.1.0, SVG Export Plug-In . SVG Version: 6.00 Build 0)  -->
<svg version="1.1" id="Layer_1" xmlns="http://www.w3.org/2000/svg" xmlns:xlink="http://www.w3.org/1999/xlink" x="0px" y="0px"
	 width="1440px" height="55px" viewBox="0 0 1440 55" enable-background="new 0 0 1440 55" xml:space="preserve">
<rect fill="#F1D689" width="1440" height="55"/>
<g>
	<g>
		<defs>
			<path id="SVGID_1_" d="M518.9,22.6c-2.6-1.4-5.1-3.1-7.9-4c-2.8-0.9-4.7-1.3-6.1-4.8c-1.2-3.1-5.3-5-8.2-7.4
				c6-1.3,10.8,1.8,15.1,9.8c1.7-0.7,3.5-1.3,5.4-2.1c-2.4-2.8-4.7-5.4-7-8.1c0.2-0.3,0.4-0.6,0.5-0.8c1.7,0.8,3.8,1.1,5.1,2.4
				c4.5,4.5,8.6,9.4,16,4.7c0.7-0.5,3,1.6,4.2,3.8c-1.7,0.3-3.5,0.5-5.8,0.9c1.2,2,2.2,3.8,3.3,5.6c-2.5,0.4-4.5,0.8-6.5,1.1
				L518.9,22.6z"/>
		</defs>
		<clipPath id="SVGID_2_">
			<use xlink:href="#SVGID_1_"  overflow="visible"/>
		</clipPath>
		<g clip-path="url(#SVGID_2_)">
			<defs>
				<rect id="SVGID_3_" x="-377.5" y="-979.2" width="1440" height="1024"/>
			</defs>
			<clipPath id="SVGID_4_">
				<use xlink:href="#SVGID_3_"  overflow="visible"/>
			</clipPath>
			<rect x="491.7" y="0.4" clip-path="url(#SVGID_4_)" fill="#ECD185" width="49.3" height="28.6"/>
		</g>
	</g>
	<g>
		<defs>
			<path id="SVGID_5_" d="M518.9,22.6c2.7,0.4,5.4,0.9,8.1,1.3c4.2,1.7,4.7,4.2,1.5,7.9C525.1,28.6,522,25.6,518.9,22.6"/>
		</defs>
		<clipPath id="SVGID_6_">
			<use xlink:href="#SVGID_5_"  overflow="visible"/>
		</clipPath>
		<g clip-path="url(#SVGID_6_)">
			<defs>
				<rect id="SVGID_7_" x="-377.5" y="-979.2" width="1440" height="1024"/>
			</defs>
			<clipPath id="SVGID_8_">
				<use xlink:href="#SVGID_7_"  overflow="visible"/>
			</clipPath>
			<rect x="513.9" y="17.6" clip-path="url(#SVGID_8_)" fill="#E6CA7E" width="21.7" height="19.2"/>
		</g>
	</g>
	<g>
		<defs>
			<path id="SVGID_9_" d="M539.3,40.2c0.3-0.8,0.6-1.5,1.1-2.7c1.8,2.5,3.2,4.6,4.7,6.7c-0.4,0.5-0.7,0.9-1.1,1.4l-4.6-4.2
				c0.1-0.1,0.4-0.3,0.4-0.4C539.7,40.7,539.5,40.5,539.3,40.2"/>
		</defs>
		<clipPath id="SVGID_10_">
			<use xlink:href="#SVGID_9_"  overflow="visible"/>
		</clipPath>
		<g clip-path="url(#SVGID_10_)">
			<defs>
				<rect id="SVGID_11_" x="-377.5" y="-979.2" width="1440" height="1024"/>
			</defs>
			<clipPath id="SVGID_12_">
				<use xlink:href="#SVGID_11_"  overflow="visible"/>
			</clipPath>
			<rect x="534.3" y="32.5" clip-path="url(#SVGID_12_)" fill="#E6CA7E" width="15.7" height="18.1"/>
		</g>
	</g>
</g>
<g>
	<g>
		<defs>
			<path id="SVGID_13_" d="M659.6,22.6c-2.6-1.4-5.1-3.1-7.9-4c-2.8-0.9-4.7-1.3-6.1-4.8c-1.2-3.1-5.3-5-8.2-7.4
				c6-1.3,10.8,1.8,15.1,9.8c1.7-0.7,3.5-1.3,5.4-2.1c-2.4-2.8-4.7-5.4-7-8.1c0.2-0.3,0.4-0.6,0.5-0.8c1.7,0.8,3.8,1.1,5.1,2.4
				c4.5,4.5,8.6,9.4,16,4.7c0.7-0.5,3,1.6,4.2,3.8c-1.7,0.3-3.5,0.5-5.8,0.9c1.2,2,2.2,3.8,3.3,5.6c-2.5,0.4-4.5,0.8-6.5,1.1
				L659.6,22.6z"/>
		</defs>
		<clipPath id="SVGID_14_">
			<use xlink:href="#SVGID_13_"  overflow="visible"/>
		</clipPath>
		<g clip-path="url(#SVGID_14_)">
			<defs>
				<rect id="SVGID_15_" x="-236.8" y="-979.2" width="1440" height="1024"/>
			</defs>
			<clipPath id="SVGID_16_">
				<use xlink:href="#SVGID_15_"  overflow="visible"/>
			</clipPath>
			<rect x="632.3" y="0.4" clip-path="url(#SVGID_16_)" fill="#ECD185" width="49.3" height="28.6"/>
		</g>
	</g>
	<g>
		<defs>
			<path id="SVGID_17_" d="M659.6,22.6c2.7,0.4,5.4,0.9,8.1,1.3c4.2,1.7,4.7,4.2,1.5,7.9C665.8,28.6,662.7,25.6,659.6,22.6"/>
		</defs>
		<clipPath id="SVGID_18_">
			<use xlink:href="#SVGID_17_"  overflow="visible"/>
		</clipPath>
		<g clip-path="url(#SVGID_18_)">
			<defs>
				<rect id="SVGID_19_" x="-236.8" y="-979.2" width="1440" height="1024"/>
			</defs>
			<clipPath id="SVGID_20_">
				<use xlink:href="#SVGID_19_"  overflow="visible"/>
			</clipPath>
			<rect x="654.6" y="17.6" clip-path="url(#SVGID_20_)" fill="#E6CA7E" width="21.7" height="19.2"/>
		</g>
	</g>
	<g>
		<defs>
			<path id="SVGID_21_" d="M680,40.2c0.3-0.8,0.6-1.5,1.1-2.7c1.8,2.5,3.2,4.6,4.7,6.7c-0.4,0.5-0.7,0.9-1.1,1.4l-4.6-4.2
				c0.1-0.1,0.4-0.3,0.4-0.4C680.3,40.7,680.2,40.5,680,40.2"/>
		</defs>
		<clipPath id="SVGID_22_">
			<use xlink:href="#SVGID_21_"  overflow="visible"/>
		</clipPath>
		<g clip-path="url(#SVGID_22_)">
			<defs>
				<rect id="SVGID_23_" x="-236.8" y="-979.2" width="1440" height="1024"/>
			</defs>
			<clipPath id="SVGID_24_">
				<use xlink:href="#SVGID_23_"  overflow="visible"/>
			</clipPath>
			<rect x="675" y="32.5" clip-path="url(#SVGID_24_)" fill="#E6CA7E" width="15.7" height="18.1"/>
		</g>
	</g>
</g>
<g>
	<g>
		<defs>
			<path id="SVGID_25_" d="M800.2,22.6c-2.6-1.4-5.1-3.1-7.9-4c-2.8-0.9-4.7-1.3-6.1-4.8c-1.2-3.1-5.3-5-8.2-7.4
				c6-1.3,10.8,1.8,15.1,9.8c1.7-0.7,3.5-1.3,5.4-2.1c-2.4-2.8-4.7-5.4-7-8.1c0.2-0.3,0.4-0.6,0.5-0.8c1.7,0.8,3.8,1.1,5.1,2.4
				c4.5,4.5,8.6,9.4,16,4.7c0.7-0.5,3,1.6,4.2,3.8c-1.7,0.3-3.5,0.5-5.8,0.9c1.2,2,2.2,3.8,3.3,5.6c-2.5,0.4-4.5,0.8-6.5,1.1
				L800.2,22.6z"/>
		</defs>
		<clipPath id="SVGID_26_">
			<use xlink:href="#SVGID_25_"  overflow="visible"/>
		</clipPath>
		<g clip-path="url(#SVGID_26_)">
			<defs>
				<rect id="SVGID_27_" x="-96.1" y="-979.2" width="1440" height="1024"/>
			</defs>
			<clipPath id="SVGID_28_">
				<use xlink:href="#SVGID_27_"  overflow="visible"/>
			</clipPath>
			<rect x="773" y="0.4" clip-path="url(#SVGID_28_)" fill="#ECD185" width="49.3" height="28.6"/>
		</g>
	</g>
	<g>
		<defs>
			<path id="SVGID_29_" d="M800.2,22.6c2.7,0.4,5.4,0.9,8.1,1.3c4.2,1.7,4.7,4.2,1.5,7.9C806.5,28.6,803.3,25.6,800.2,22.6"/>
		</defs>
		<clipPath id="SVGID_30_">
			<use xlink:href="#SVGID_29_"  overflow="visible"/>
		</clipPath>
		<g clip-path="url(#SVGID_30_)">
			<defs>
				<rect id="SVGID_31_" x="-96.1" y="-979.2" width="1440" height="1024"/>
			</defs>
			<clipPath id="SVGID_32_">
				<use xlink:href="#SVGID_31_"  overflow="visible"/>
			</clipPath>
			<rect x="795.2" y="17.6" clip-path="url(#SVGID_32_)" fill="#E6CA7E" width="21.7" height="19.2"/>
		</g>
	</g>
	<g>
		<defs>
			<path id="SVGID_33_" d="M820.7,40.2c0.3-0.8,0.6-1.5,1.1-2.7c1.8,2.5,3.2,4.6,4.7,6.7c-0.4,0.5-0.7,0.9-1.1,1.4l-4.6-4.2
				c0.1-0.1,0.4-0.3,0.4-0.4C821,40.7,820.8,40.5,820.7,40.2"/>
		</defs>
		<clipPath id="SVGID_34_">
			<use xlink:href="#SVGID_33_"  overflow="visible"/>
		</clipPath>
		<g clip-path="url(#SVGID_34_)">
			<defs>
				<rect id="SVGID_35_" x="-96.1" y="-979.2" width="1440" height="1024"/>
			</defs>
			<clipPath id="SVGID_36_">
				<use xlink:href="#SVGID_35_"  overflow="visible"/>
			</clipPath>
			<rect x="815.7" y="32.5" clip-path="url(#SVGID_36_)" fill="#E6CA7E" width="15.7" height="18.1"/>
		</g>
	</g>
</g>
<g>
	<g>
		<defs>
			<path id="SVGID_37_" d="M940.9,22.6c-2.6-1.4-5.1-3.1-7.9-4c-2.8-0.9-4.7-1.3-6.1-4.8c-1.2-3.1-5.3-5-8.2-7.4
				c6-1.3,10.8,1.8,15.1,9.8c1.7-0.7,3.5-1.3,5.4-2.1c-2.4-2.8-4.7-5.4-7-8.1c0.2-0.3,0.4-0.6,0.5-0.8c1.7,0.8,3.8,1.1,5.1,2.4
				c4.5,4.5,8.6,9.4,16,4.7c0.7-0.5,3,1.6,4.2,3.8c-1.7,0.3-3.5,0.5-5.8,0.9c1.2,2,2.2,3.8,3.3,5.6c-2.5,0.4-4.5,0.8-6.5,1.1
				L940.9,22.6z"/>
		</defs>
		<clipPath id="SVGID_38_">
			<use xlink:href="#SVGID_37_"  overflow="visible"/>
		</clipPath>
		<g clip-path="url(#SVGID_38_)">
			<defs>
				<rect id="SVGID_39_" x="44.5" y="-979.2" width="1440" height="1024"/>
			</defs>
			<clipPath id="SVGID_40_">
				<use xlink:href="#SVGID_39_"  overflow="visible"/>
			</clipPath>
			<rect x="913.7" y="0.4" clip-path="url(#SVGID_40_)" fill="#ECD185" width="49.3" height="28.6"/>
		</g>
	</g>
	<g>
		<defs>
			<path id="SVGID_41_" d="M940.9,22.6c2.7,0.4,5.4,0.9,8.1,1.3c4.2,1.7,4.7,4.2,1.5,7.9C947.1,28.6,944,25.6,940.9,22.6"/>
		</defs>
		<clipPath id="SVGID_42_">
			<use xlink:href="#SVGID_41_"  overflow="visible"/>
		</clipPath>
		<g clip-path="url(#SVGID_42_)">
			<defs>
				<rect id="SVGID_43_" x="44.5" y="-979.2" width="1440" height="1024"/>
			</defs>
			<clipPath id="SVGID_44_">
				<use xlink:href="#SVGID_43_"  overflow="visible"/>
			</clipPath>
			<rect x="935.9" y="17.6" clip-path="url(#SVGID_44_)" fill="#E6CA7E" width="21.7" height="19.2"/>
		</g>
	</g>
	<g>
		<defs>
			<path id="SVGID_45_" d="M961.3,40.2c0.3-0.8,0.6-1.5,1.1-2.7c1.8,2.5,3.2,4.6,4.7,6.7c-0.4,0.5-0.7,0.9-1.1,1.4l-4.6-4.2
				c0.1-0.1,0.4-0.3,0.4-0.4C961.7,40.7,961.5,40.5,961.3,40.2"/>
		</defs>
		<clipPath id="SVGID_46_">
			<use xlink:href="#SVGID_45_"  overflow="visible"/>
		</clipPath>
		<g clip-path="url(#SVGID_46_)">
			<defs>
				<rect id="SVGID_47_" x="44.5" y="-979.2" width="1440" height="1024"/>
			</defs>
			<clipPath id="SVGID_48_">
				<use xlink:href="#SVGID_47_"  overflow="visible"/>
			</clipPath>
			<rect x="956.3" y="32.5" clip-path="url(#SVGID_48_)" fill="#E6CA7E" width="15.7" height="18.1"/>
		</g>
	</g>
</g>
<g>
	<g>
		<defs>
			<path id="SVGID_49_" d="M1081.6,22.6c-2.6-1.4-5.1-3.1-7.9-4c-2.8-0.9-4.7-1.3-6.1-4.8c-1.2-3.1-5.3-5-8.2-7.4
				c6-1.3,10.8,1.8,15.1,9.8c1.7-0.7,3.5-1.3,5.4-2.1c-2.4-2.8-4.7-5.4-7-8.1c0.2-0.3,0.4-0.6,0.5-0.8c1.7,0.8,3.8,1.1,5.1,2.4
				c4.5,4.5,8.6,9.4,16,4.7c0.7-0.5,3,1.6,4.2,3.8c-1.7,0.3-3.5,0.5-5.8,0.9c1.2,2,2.2,3.8,3.3,5.6c-2.5,0.4-4.5,0.8-6.5,1.1
				L1081.6,22.6z"/>
		</defs>
		<clipPath id="SVGID_50_">
			<use xlink:href="#SVGID_49_"  overflow="visible"/>
		</clipPath>
		<g clip-path="url(#SVGID_50_)">
			<defs>
				<rect id="SVGID_51_" x="185.2" y="-979.2" width="1440" height="1024"/>
			</defs>
			<clipPath id="SVGID_52_">
				<use xlink:href="#SVGID_51_"  overflow="visible"/>
			</clipPath>
			<rect x="1054.3" y="0.4" clip-path="url(#SVGID_52_)" fill="#ECD185" width="49.3" height="28.6"/>
		</g>
	</g>
	<g>
		<defs>
			<path id="SVGID_53_" d="M1081.6,22.6c2.7,0.4,5.4,0.9,8.1,1.3c4.2,1.7,4.7,4.2,1.5,7.9C1087.8,28.6,1084.7,25.6,1081.6,22.6"/>
		</defs>
		<clipPath id="SVGID_54_">
			<use xlink:href="#SVGID_53_"  overflow="visible"/>
		</clipPath>
		<g clip-path="url(#SVGID_54_)">
			<defs>
				<rect id="SVGID_55_" x="185.2" y="-979.2" width="1440" height="1024"/>
			</defs>
			<clipPath id="SVGID_56_">
				<use xlink:href="#SVGID_55_"  overflow="visible"/>
			</clipPath>
			<rect x="1076.6" y="17.6" clip-path="url(#SVGID_56_)" fill="#E6CA7E" width="21.7" height="19.2"/>
		</g>
	</g>
	<g>
		<defs>
			<path id="SVGID_57_" d="M1102,40.2c0.3-0.8,0.6-1.5,1.1-2.7c1.8,2.5,3.2,4.6,4.7,6.7c-0.4,0.5-0.7,0.9-1.1,1.4l-4.6-4.2
				c0.1-0.1,0.4-0.3,0.4-0.4C1102.3,40.7,1102.2,40.5,1102,40.2"/>
		</defs>
		<clipPath id="SVGID_58_">
			<use xlink:href="#SVGID_57_"  overflow="visible"/>
		</clipPath>
		<g clip-path="url(#SVGID_58_)">
			<defs>
				<rect id="SVGID_59_" x="185.2" y="-979.2" width="1440" height="1024"/>
			</defs>
			<clipPath id="SVGID_60_">
				<use xlink:href="#SVGID_59_"  overflow="visible"/>
			</clipPath>
			<rect x="1097" y="32.5" clip-path="url(#SVGID_60_)" fill="#E6CA7E" width="15.7" height="18.1"/>
		</g>
	</g>
</g>
<g>
	<g>
		<defs>
			<path id="SVGID_61_" d="M96.9,22.6c-2.6-1.4-5.1-3.1-7.9-4c-2.8-0.9-4.7-1.3-6.1-4.8c-1.2-3.1-5.3-5-8.2-7.4
				c6-1.3,10.8,1.8,15.1,9.8c1.7-0.7,3.5-1.3,5.4-2.1c-2.4-2.8-4.7-5.4-7-8.1c0.2-0.3,0.4-0.6,0.5-0.8c1.7,0.8,3.8,1.1,5.1,2.4
				c4.5,4.5,8.6,9.4,16,4.7c0.7-0.5,3,1.6,4.2,3.8c-1.7,0.3-3.5,0.5-5.8,0.9c1.2,2,2.2,3.8,3.3,5.6c-2.5,0.4-4.5,0.8-6.5,1.1
				L96.9,22.6z"/>
		</defs>
		<clipPath id="SVGID_62_">
			<use xlink:href="#SVGID_61_"  overflow="visible"/>
		</clipPath>
		<g clip-path="url(#SVGID_62_)">
			<defs>
				<rect id="SVGID_63_" x="-799.5" y="-979.2" width="1440" height="1024"/>
			</defs>
			<clipPath id="SVGID_64_">
				<use xlink:href="#SVGID_63_"  overflow="visible"/>
			</clipPath>
			<rect x="69.7" y="0.4" clip-path="url(#SVGID_64_)" fill="#ECD185" width="49.3" height="28.6"/>
		</g>
	</g>
	<g>
		<defs>
			<path id="SVGID_65_" d="M96.9,22.6c2.7,0.4,5.4,0.9,8.1,1.3c4.2,1.7,4.7,4.2,1.5,7.9C103.1,28.6,100,25.6,96.9,22.6"/>
		</defs>
		<clipPath id="SVGID_66_">
			<use xlink:href="#SVGID_65_"  overflow="visible"/>
		</clipPath>
		<g clip-path="url(#SVGID_66_)">
			<defs>
				<rect id="SVGID_67_" x="-799.5" y="-979.2" width="1440" height="1024"/>
			</defs>
			<clipPath id="SVGID_68_">
				<use xlink:href="#SVGID_67_"  overflow="visible"/>
			</clipPath>
			<rect x="91.9" y="17.6" clip-path="url(#SVGID_68_)" fill="#E6CA7E" width="21.7" height="19.2"/>
		</g>
	</g>
	<g>
		<defs>
			<path id="SVGID_69_" d="M117.3,40.2c0.3-0.8,0.6-1.5,1.1-2.7c1.8,2.5,3.2,4.6,4.7,6.7c-0.4,0.5-0.7,0.9-1.1,1.4l-4.6-4.2
				c0.1-0.1,0.4-0.3,0.4-0.4C117.7,40.7,117.5,40.5,117.3,40.2"/>
		</defs>
		<clipPath id="SVGID_70_">
			<use xlink:href="#SVGID_69_"  overflow="visible"/>
		</clipPath>
		<g clip-path="url(#SVGID_70_)">
			<defs>
				<rect id="SVGID_71_" x="-799.5" y="-979.2" width="1440" height="1024"/>
			</defs>
			<clipPath id="SVGID_72_">
				<use xlink:href="#SVGID_71_"  overflow="visible"/>
			</clipPath>
			<rect x="112.3" y="32.5" clip-path="url(#SVGID_72_)" fill="#E6CA7E" width="15.7" height="18.1"/>
		</g>
	</g>
</g>
<g>
	<g>
		<defs>
			<path id="SVGID_73_" d="M237.6,22.6c-2.6-1.4-5.1-3.1-7.9-4c-2.8-0.9-4.7-1.3-6.1-4.8c-1.2-3.1-5.3-5-8.2-7.4
				c6-1.3,10.8,1.8,15.1,9.8c1.7-0.7,3.5-1.3,5.4-2.1c-2.4-2.8-4.7-5.4-7-8.1c0.2-0.3,0.4-0.6,0.5-0.8c1.7,0.8,3.8,1.1,5.1,2.4
				c4.5,4.5,8.6,9.4,16,4.7c0.7-0.5,3,1.6,4.2,3.8c-1.7,0.3-3.5,0.5-5.8,0.9c1.2,2,2.2,3.8,3.3,5.6c-2.5,0.4-4.5,0.8-6.5,1.1
				L237.6,22.6z"/>
		</defs>
		<clipPath id="SVGID_74_">
			<use xlink:href="#SVGID_73_"  overflow="visible"/>
		</clipPath>
		<g clip-path="url(#SVGID_74_)">
			<defs>
				<rect id="SVGID_75_" x="-658.8" y="-979.2" width="1440" height="1024"/>
			</defs>
			<clipPath id="SVGID_76_">
				<use xlink:href="#SVGID_75_"  overflow="visible"/>
			</clipPath>
			<rect x="210.3" y="0.4" clip-path="url(#SVGID_76_)" fill="#ECD185" width="49.3" height="28.6"/>
		</g>
	</g>
	<g>
		<defs>
			<path id="SVGID_77_" d="M237.6,22.6c2.7,0.4,5.4,0.9,8.1,1.3c4.2,1.7,4.7,4.2,1.5,7.9C243.8,28.6,240.7,25.6,237.6,22.6"/>
		</defs>
		<clipPath id="SVGID_78_">
			<use xlink:href="#SVGID_77_"  overflow="visible"/>
		</clipPath>
		<g clip-path="url(#SVGID_78_)">
			<defs>
				<rect id="SVGID_79_" x="-658.8" y="-979.2" width="1440" height="1024"/>
			</defs>
			<clipPath id="SVGID_80_">
				<use xlink:href="#SVGID_79_"  overflow="visible"/>
			</clipPath>
			<rect x="232.6" y="17.6" clip-path="url(#SVGID_80_)" fill="#E6CA7E" width="21.7" height="19.2"/>
		</g>
	</g>
	<g>
		<defs>
			<path id="SVGID_81_" d="M258,40.2c0.3-0.8,0.6-1.5,1.1-2.7c1.8,2.5,3.2,4.6,4.7,6.7c-0.4,0.5-0.7,0.9-1.1,1.4l-4.6-4.2
				c0.1-0.1,0.4-0.3,0.4-0.4C258.3,40.7,258.2,40.5,258,40.2"/>
		</defs>
		<clipPath id="SVGID_82_">
			<use xlink:href="#SVGID_81_"  overflow="visible"/>
		</clipPath>
		<g clip-path="url(#SVGID_82_)">
			<defs>
				<rect id="SVGID_83_" x="-658.8" y="-979.2" width="1440" height="1024"/>
			</defs>
			<clipPath id="SVGID_84_">
				<use xlink:href="#SVGID_83_"  overflow="visible"/>
			</clipPath>
			<rect x="253" y="32.5" clip-path="url(#SVGID_84_)" fill="#E6CA7E" width="15.7" height="18.1"/>
		</g>
	</g>
</g>
<g>
	<g>
		<defs>
			<path id="SVGID_85_" d="M378.2,22.6c-2.6-1.4-5.1-3.1-7.9-4c-2.8-0.9-4.7-1.3-6.1-4.8c-1.2-3.1-5.3-5-8.2-7.4
				c6-1.3,10.8,1.8,15.1,9.8c1.7-0.7,3.5-1.3,5.4-2.1c-2.4-2.8-4.7-5.4-7-8.1c0.2-0.3,0.4-0.6,0.5-0.8c1.7,0.8,3.8,1.1,5.1,2.4
				c4.5,4.5,8.6,9.4,16,4.7c0.7-0.5,3,1.6,4.2,3.8c-1.7,0.3-3.5,0.5-5.8,0.9c1.2,2,2.2,3.8,3.3,5.6c-2.5,0.4-4.5,0.8-6.5,1.1
				L378.2,22.6z"/>
		</defs>
		<clipPath id="SVGID_86_">
			<use xlink:href="#SVGID_85_"  overflow="visible"/>
		</clipPath>
		<g clip-path="url(#SVGID_86_)">
			<defs>
				<rect id="SVGID_87_" x="-518.1" y="-979.2" width="1440" height="1024"/>
			</defs>
			<clipPath id="SVGID_88_">
				<use xlink:href="#SVGID_87_"  overflow="visible"/>
			</clipPath>
			<rect x="351" y="0.4" clip-path="url(#SVGID_88_)" fill="#ECD185" width="49.3" height="28.6"/>
		</g>
	</g>
	<g>
		<defs>
			<path id="SVGID_89_" d="M378.2,22.6c2.7,0.4,5.4,0.9,8.1,1.3c4.2,1.7,4.7,4.2,1.5,7.9C384.5,28.6,381.3,25.6,378.2,22.6"/>
		</defs>
		<clipPath id="SVGID_90_">
			<use xlink:href="#SVGID_89_"  overflow="visible"/>
		</clipPath>
		<g clip-path="url(#SVGID_90_)">
			<defs>
				<rect id="SVGID_91_" x="-518.1" y="-979.2" width="1440" height="1024"/>
			</defs>
			<clipPath id="SVGID_92_">
				<use xlink:href="#SVGID_91_"  overflow="visible"/>
			</clipPath>
			<rect x="373.2" y="17.6" clip-path="url(#SVGID_92_)" fill="#E6CA7E" width="21.7" height="19.2"/>
		</g>
	</g>
	<g>
		<defs>
			<path id="SVGID_93_" d="M398.7,40.2c0.3-0.8,0.6-1.5,1.1-2.7c1.8,2.5,3.2,4.6,4.7,6.7c-0.4,0.5-0.7,0.9-1.1,1.4l-4.6-4.2
				c0.1-0.1,0.4-0.3,0.4-0.4C399,40.7,398.8,40.5,398.7,40.2"/>
		</defs>
		<clipPath id="SVGID_94_">
			<use xlink:href="#SVGID_93_"  overflow="visible"/>
		</clipPath>
		<g clip-path="url(#SVGID_94_)">
			<defs>
				<rect id="SVGID_95_" x="-518.1" y="-979.2" width="1440" height="1024"/>
			</defs>
			<clipPath id="SVGID_96_">
				<use xlink:href="#SVGID_95_"  overflow="visible"/>
			</clipPath>
			<rect x="393.7" y="32.5" clip-path="url(#SVGID_96_)" fill="#E6CA7E" width="15.7" height="18.1"/>
		</g>
	</g>
</g>
<g>
	<g>
		<defs>
			<path id="SVGID_97_" d="M1222.2,22.6c-2.6-1.4-5.1-3.1-7.9-4c-2.8-0.9-4.7-1.3-6.1-4.8c-1.2-3.1-5.3-5-8.2-7.4
				c6-1.3,10.8,1.8,15.1,9.8c1.7-0.7,3.5-1.3,5.4-2.1c-2.4-2.8-4.7-5.4-7-8.1c0.2-0.3,0.4-0.6,0.5-0.8c1.7,0.8,3.8,1.1,5.1,2.4
				c4.5,4.5,8.6,9.4,16,4.7c0.7-0.5,3,1.6,4.2,3.8c-1.7,0.3-3.5,0.5-5.8,0.9c1.2,2,2.2,3.8,3.3,5.6c-2.5,0.4-4.5,0.8-6.5,1.1
				L1222.2,22.6z"/>
		</defs>
		<clipPath id="SVGID_98_">
			<use xlink:href="#SVGID_97_"  overflow="visible"/>
		</clipPath>
		<g clip-path="url(#SVGID_98_)">
			<defs>
				<rect id="SVGID_99_" x="325.9" y="-979.2" width="1440" height="1024"/>
			</defs>
			<clipPath id="SVGID_100_">
				<use xlink:href="#SVGID_99_"  overflow="visible"/>
			</clipPath>
			<rect x="1195" y="0.4" clip-path="url(#SVGID_100_)" fill="#ECD185" width="49.3" height="28.6"/>
		</g>
	</g>
	<g>
		<defs>
			<path id="SVGID_101_" d="M1222.2,22.6c2.7,0.4,5.4,0.9,8.1,1.3c4.2,1.7,4.7,4.2,1.5,7.9C1228.5,28.6,1225.3,25.6,1222.2,22.6"/>
		</defs>
		<clipPath id="SVGID_102_">
			<use xlink:href="#SVGID_101_"  overflow="visible"/>
		</clipPath>
		<g clip-path="url(#SVGID_102_)">
			<defs>
				<rect id="SVGID_103_" x="325.9" y="-979.2" width="1440" height="1024"/>
			</defs>
			<clipPath id="SVGID_104_">
				<use xlink:href="#SVGID_103_"  overflow="visible"/>
			</clipPath>
			<rect x="1217.2" y="17.6" clip-path="url(#SVGID_104_)" fill="#E6CA7E" width="21.7" height="19.2"/>
		</g>
	</g>
	<g>
		<defs>
			<path id="SVGID_105_" d="M1242.7,40.2c0.3-0.8,0.6-1.5,1.1-2.7c1.8,2.5,3.2,4.6,4.7,6.7c-0.4,0.5-0.7,0.9-1.1,1.4l-4.6-4.2
				c0.1-0.1,0.4-0.3,0.4-0.4C1243,40.7,1242.8,40.5,1242.7,40.2"/>
		</defs>
		<clipPath id="SVGID_106_">
			<use xlink:href="#SVGID_105_"  overflow="visible"/>
		</clipPath>
		<g clip-path="url(#SVGID_106_)">
			<defs>
				<rect id="SVGID_107_" x="325.9" y="-979.2" width="1440" height="1024"/>
			</defs>
			<clipPath id="SVGID_108_">
				<use xlink:href="#SVGID_107_"  overflow="visible"/>
			</clipPath>
			<rect x="1237.7" y="32.5" clip-path="url(#SVGID_108_)" fill="#E6CA7E" width="15.7" height="18.1"/>
		</g>
	</g>
</g>
<g>
	<g>
		<defs>
			<path id="SVGID_109_" d="M1362.9,22.6c-2.6-1.4-5.1-3.1-7.9-4c-2.8-0.9-4.7-1.3-6.1-4.8c-1.2-3.1-5.3-5-8.2-7.4
				c6-1.3,10.8,1.8,15.1,9.8c1.7-0.7,3.5-1.3,5.4-2.1c-2.4-2.8-4.7-5.4-7-8.1c0.2-0.3,0.4-0.6,0.5-0.8c1.7,0.8,3.8,1.1,5.1,2.4
				c4.5,4.5,8.6,9.4,16,4.7c0.7-0.5,3,1.6,4.2,3.8c-1.7,0.3-3.5,0.5-5.8,0.9c1.2,2,2.2,3.8,3.3,5.6c-2.5,0.4-4.5,0.8-6.5,1.1
				L1362.9,22.6z"/>
		</defs>
		<clipPath id="SVGID_110_">
			<use xlink:href="#SVGID_109_"  overflow="visible"/>
		</clipPath>
		<g clip-path="url(#SVGID_110_)">
			<defs>
				<rect id="SVGID_111_" x="466.5" y="-979.2" width="1440" height="1024"/>
			</defs>
			<clipPath id="SVGID_112_">
				<use xlink:href="#SVGID_111_"  overflow="visible"/>
			</clipPath>
			<rect x="1335.7" y="0.4" clip-path="url(#SVGID_112_)" fill="#ECD185" width="49.3" height="28.6"/>
		</g>
	</g>
	<g>
		<defs>
			<path id="SVGID_113_" d="M1362.9,22.6c2.7,0.4,5.4,0.9,8.1,1.3c4.2,1.7,4.7,4.2,1.5,7.9C1369.1,28.6,1366,25.6,1362.9,22.6"/>
		</defs>
		<clipPath id="SVGID_114_">
			<use xlink:href="#SVGID_113_"  overflow="visible"/>
		</clipPath>
		<g clip-path="url(#SVGID_114_)">
			<defs>
				<rect id="SVGID_115_" x="466.5" y="-979.2" width="1440" height="1024"/>
			</defs>
			<clipPath id="SVGID_116_">
				<use xlink:href="#SVGID_115_"  overflow="visible"/>
			</clipPath>
			<rect x="1357.9" y="17.6" clip-path="url(#SVGID_116_)" fill="#E6CA7E" width="21.7" height="19.2"/>
		</g>
	</g>
	<g>
		<defs>
			<path id="SVGID_117_" d="M1383.3,40.2c0.3-0.8,0.6-1.5,1.1-2.7c1.8,2.5,3.2,4.6,4.7,6.7c-0.4,0.5-0.7,0.9-1.1,1.4l-4.6-4.2
				c0.1-0.1,0.4-0.3,0.4-0.4C1383.7,40.7,1383.5,40.5,1383.3,40.2"/>
		</defs>
		<clipPath id="SVGID_118_">
			<use xlink:href="#SVGID_117_"  overflow="visible"/>
		</clipPath>
		<g clip-path="url(#SVGID_118_)">
			<defs>
				<rect id="SVGID_119_" x="466.5" y="-979.2" width="1440" height="1024"/>
			</defs>
			<clipPath id="SVGID_120_">
				<use xlink:href="#SVGID_119_"  overflow="visible"/>
			</clipPath>
			<rect x="1378.3" y="32.5" clip-path="url(#SVGID_120_)" fill="#E6CA7E" width="15.7" height="18.1"/>
		</g>
	</g>
</g>
</svg>
