<?xml version="1.0" encoding="utf-8"?>
<!-- Generator: Adobe Illustrator 21.1.0, SVG Export Plug-In . SVG Version: 6.00 Build 0)  -->
<svg version="1.1" id="Layer_1" xmlns="http://www.w3.org/2000/svg" xmlns:xlink="http://www.w3.org/1999/xlink" x="0px" y="0px"
	 width="445.5px" height="413.6px" viewBox="0 0 445.5 413.6" enable-background="new 0 0 445.5 413.6" xml:space="preserve">
<g>
	<path fill-rule="evenodd" clip-rule="evenodd" fill="#FFFFFF" d="M204.1,351.5L192.5,104C188,52,153.4-2.6,123.2,0.1
		S68.4,62.5,72.9,114.4l31.5,245.7L204.1,351.5z"/>
	<g>
		<path fill="#F38282" d="M123.2,0.1c-0.8,0.1-1.7,0.2-2.5,0.4L151.8,356l5-0.4L125.7,0C124.8,0,124,0,123.2,0.1z"/>
		<path fill="#B4B4B4" d="M113.9,2.7l31,353.9l3-0.3l-31-354.9C115.8,1.9,114.8,2.3,113.9,2.7z"/>
		<path fill="#B4B4B4" d="M129.7,0.4l31,354.9l3-0.3l-31-353.9C131.8,0.8,130.8,0.6,129.7,0.4z"/>
	</g>
</g>
<path fill="#FADD8F" d="M311.5,413.6H0c0,0,65.8-82,147-82C240.5,331.6,311.5,413.6,311.5,413.6z"/>
<path fill="#FADD8F" d="M445.5,413.6h-261c0,0,28-66,116.5-66C368.7,347.6,445.5,413.6,445.5,413.6z"/>
<g>
	<path fill="#E6CC84" d="M228.6,413.6l-25-72.3c-17.5-5.9-36.6-9.7-56.6-9.7c-15.8,0-30.9,3.1-45.1,8.1l4,73.9H228.6z"/>
</g>
<g>
	<g>
		<path fill="#F4D78A" d="M102.6,374.1c0.6,1.6,1.1,3.2,1.8,5c-2.5-0.2-5.5-0.4-4.2,3c2.8,0,5.1,0,7.4,0c1.3,0.7,2.7,1.3,4,2
			c2.7,1.7,5.3,3.3,8,5c0.6-0.7,1.1-1.3,1.7-2c-2.2-1.7-4.4-3.3-6.7-5c-0.4-1.5-0.7-2.9-1.2-4.7c0.8,0.3,1.5,0.5,2.4-0.1
			c-0.2,0.6-0.3,1.2-0.5,1.9c1.4,0.3,2.9,0.5,4.3,1.1c1,0.4,1.9,1.2,2.6,2c0.7,0.7,1,1.8,1.7,2.5c0.6,0.6,2,0.8,2.2,1.5
			c1.3,4.1,4.6,3.8,7.7,4.6c-2.3-2.6-4.5-4.7-6.3-7.1c-0.8-1-0.7-3.2-1.5-3.5c-3.3-1.3-6.8-2-10.5-2c0.5-0.7,1-1.5,1.5-2.2
			c-0.8-0.3-1.6-0.5-2.5-0.8c1-6-4.6-5.8-7.6-7.9c-0.6-0.4-2.2,0.6-3.4,0.9C103.6,370.2,99.7,371.6,102.6,374.1z"/>
		<path fill="#F4D78A" d="M90.6,393.1c0-2.3,0-4.6,0-6c1.4-1.6,2.3-2.8,3.2-3.9c-1.5-0.1-3.4-0.9-4.4-0.2c-3.3,2.3-5.6,0.2-8.1-1.3
			c-1.9-1.2-3.8-2.5-5.7-3.8c-0.1-0.1-0.5,0.2-1,0.3c0.8,1.1,1.5,2.1,2.2,3.1c-0.2,0.5-0.4,1-0.6,1.5c-1.8-0.6-3.6-1.1-5.3-1.9
			c-1.8-0.8-3.5-1.9-5.2-2.8c-0.2,0.4-0.4,0.8-0.6,1.2c5.3,2.3,6,11.4,14.2,9.6c0.3-0.1,0.7,0.6,1.1,1c2.5,2.3,4.9,4.7,8,7.5
			C89.6,395.4,90.1,394.3,90.6,393.1z"/>
		<path fill="#F4D78A" d="M153.8,397.9c-5.2-2.1-9.1-3.9-13.1-5.1c-1.6-0.5-3.6,0.3-5.4,0.5c-0.1,0.7-0.2,1.4-0.3,2.1
			c5.5-2,8.5,0.8,10.8,4.7C148.4,399.4,150.5,398.8,153.8,397.9z"/>
		<path fill="#F4D78A" d="M154.7,381.8c-4.9-4.3-7.2-4.8-9.6-2.5c1.3,0.5,2.7,1.1,4.7,1.9c-1.6,0.8-2.4,1.2-3.1,1.6
			c0.1,0.3,0.2,0.5,0.2,0.8C149.3,382.9,151.7,382.4,154.7,381.8z"/>
	</g>
	<g>
		<path fill="#F2D587" d="M115.9,377.3c3.4,0.9,6.9,1.7,10.2,2.9c0.8,0.3,0.7,2.5,1.5,3.5c1.9,2.4,4,4.5,6.3,7.1
			c-3.1-0.8-6.4-0.6-7.7-4.6c-0.2-0.7-1.6-0.8-2.2-1.5c-0.7-0.7-1-1.8-1.7-2.5c-0.7-0.8-1.6-1.6-2.6-2c-1.3-0.6-2.8-0.7-4.3-1.1
			C115.5,378.5,115.7,377.9,115.9,377.3z"/>
		<path fill="#ECCF82" d="M114.7,375.1c-4.8-0.5-8.8-2.3-11-7c1.2-0.3,2.8-1.3,3.4-0.9C110,369.3,115.6,369.2,114.7,375.1z"/>
		<path fill="#F1D487" d="M153.8,397.9c-3.3,0.9-5.5,1.5-8,2.2c-2.3-3.9-5.3-6.7-10.8-4.7c0.1-0.7,0.2-1.4,0.3-2.1
			c1.8-0.2,3.8-1,5.4-0.5C144.8,394,148.7,395.8,153.8,397.9z"/>
		<path fill="#F0D386" d="M102.6,374.1c1,0.8,1.8,1.7,2.9,2.3c2.1,1.2,4.3,2.3,6.8,3.6c-1.8,0.8-3.3,1.5-4.7,2.1c-2.3,0-4.5,0-7.4,0
			c-1.3-3.4,1.7-3.1,4.2-3C103.8,377.3,103.2,375.7,102.6,374.1z"/>
		<path fill="#ECCF82" d="M80.6,390.1c3.3,1,6.7,2,10,3c-0.5,1.1-1,2.3-2,4.5C85.6,394.8,83.1,392.5,80.6,390.1z"/>
		<path fill="#F3D689" d="M154.7,381.8c-2.9,0.6-5.4,1.2-7.8,1.7c-0.1-0.3-0.2-0.5-0.2-0.8c0.7-0.4,1.5-0.8,3.1-1.6
			c-2-0.8-3.3-1.3-4.7-1.9C147.5,377,149.7,377.5,154.7,381.8z"/>
		<path fill="#EFD284" d="M111.6,384.1c1-0.7,2-1.3,3-2c2.2,1.7,4.4,3.3,6.7,5c-0.6,0.7-1.1,1.3-1.7,2
			C117,387.4,114.3,385.8,111.6,384.1z"/>
	</g>
</g>
<g>
	<g>
		<path fill="#F4D78A" d="M208.2,374.7c-5.2-2.1-9.1-3.9-13.1-5.1c-1.6-0.5-3.6,0.3-5.4,0.5c-0.1,0.7-0.2,1.4-0.3,2.1
			c5.5-2,8.5,0.8,10.8,4.7C202.7,376.2,204.9,375.6,208.2,374.7z"/>
		<path fill="#F4D78A" d="M209,358.6c-4.9-4.3-7.2-4.8-9.6-2.5c1.3,0.5,2.7,1.1,4.7,1.9c-1.6,0.8-2.4,1.2-3.1,1.6
			c0.1,0.3,0.2,0.5,0.2,0.8C203.7,359.7,206.1,359.2,209,358.6z"/>
	</g>
	<g>
		<path fill="#F2D587" d="M170.2,354.1c3.4,0.9,6.9,1.7,10.2,2.9c0.8,0.3,0.7,2.5,1.5,3.5c1.9,2.4,4,4.5,6.3,7.1
			c-3.1-0.8-6.4-0.6-7.7-4.6c-0.2-0.7-1.6-0.8-2.2-1.5c-0.7-0.7-1-1.8-1.7-2.5c-0.7-0.8-1.6-1.6-2.6-2c-1.3-0.6-2.8-0.7-4.3-1.1
			C169.9,355.3,170.1,354.7,170.2,354.1z"/>
		<path fill="#F1D487" d="M208.2,374.7c-3.3,0.9-5.5,1.5-8,2.2c-2.3-3.9-5.3-6.7-10.8-4.7c0.1-0.7,0.2-1.4,0.3-2.1
			c1.8-0.2,3.8-1,5.4-0.5C199.2,370.8,203,372.6,208.2,374.7z"/>
		<path fill="#F0D386" d="M157,350.9c1,0.8,1.8,1.7,2.9,2.3c2.1,1.2,4.3,2.3,6.8,3.6c-1.8,0.8-3.3,1.5-4.7,2.1c-2.3,0-4.5,0-7.4,0
			c-1.3-3.4,1.7-3.1,4.2-3C158.1,354.1,157.6,352.5,157,350.9z"/>
		<path fill="#ECCF82" d="M135,366.9c3.3,1,6.7,2,10,3c-0.5,1.1-1,2.3-2,4.5C140,371.6,137.5,369.3,135,366.9z"/>
		<path fill="#F3D689" d="M209,358.6c-2.9,0.6-5.4,1.2-7.8,1.7c-0.1-0.3-0.2-0.5-0.2-0.8c0.7-0.4,1.5-0.8,3.1-1.6
			c-2-0.8-3.3-1.3-4.7-1.9C201.8,353.8,204.1,354.3,209,358.6z"/>
		<path fill="#EFD284" d="M166,360.9c1-0.7,2-1.3,3-2c2.2,1.7,4.4,3.3,6.7,5c-0.6,0.7-1.1,1.3-1.7,2
			C171.3,364.2,168.7,362.6,166,360.9z"/>
	</g>
</g>
<polygon fill="#E6CC84" points="362.6,413.4 340,413.4 330,369.5 343.1,374.5 "/>
<g>
	<path fill="#F4D78A" d="M292.2,381.6c2.3,0,4.7,0,7,0c0.7,0.3,1.3,0.7,2,1c4.7,2,7.9,7.7,15.4,6.7c-3.5-2.4-6-4-8.4-5.7
		c0.7-1,1.3-2,2-3c1,0.6,2.6,1.8,2.9,1.6c4.8-4.1,4.9,0.6,6.4,3.5c2.2-0.2,4.6-0.3,7-0.5c0.2-0.5,0.4-1,0.6-1.6
		c-2.3-1.7-4.5-4.2-7.1-4.8c-3.8-0.8-7.9-0.2-11.8-0.2c0.9-0.6,1.7-1.3,3.2-2.3c-1.5-0.3-2.3-0.5-3.2-0.7c-1.8-1.9-3.6-5.5-5.4-5.5
		c-3.6-0.1-6-2-8.9-3.1c-1.2-0.5-3.1,0.7-4.6,1.1c0.6,1.2,1.3,2.3,1.9,3.5c-1.9,0.5-3.7,1.1-5.3,1.6c1.5,2.2,2.9,4.3,4.3,6.4
		c-3.1-0.3-6.1-0.7-9.2-1C283.9,385.4,288.1,383,292.2,381.6z"/>
	<path fill="#F4D78A" d="M363.9,400.6c0.1-0.5,0.2-0.9,0.3-1.4c-5.1-1.2-10.2-2.5-15.2-3.7C352.2,402.1,358.3,400.5,363.9,400.6z"/>
	<path fill="#F4D78A" d="M277.2,398.8c0.1-0.5,0.2-0.9,0.3-1.4c-5.1-1.2-10.2-2.5-15.2-3.7C265.5,400.4,271.6,398.8,277.2,398.8z"/>
	<path fill="#F4D78A" d="M326.9,390.2c3.9,0.8,7.6,1.5,12.3,2.4c-3.3-2.5-5.5-4.1-7.7-5.7c0.2-0.3,0.3-0.6,0.5-0.9
		c-1.4,0.2-2.9,0.3-4.6,0.5C327.2,387.7,327.1,389,326.9,390.2z"/>
	<path fill="#F4D78A" d="M277.5,395.1c3.9,0.8,7.6,1.5,12.3,2.4c-3.3-2.5-5.5-4.1-7.7-5.7c0.2-0.3,0.3-0.6,0.5-0.9
		c-1.4,0.2-2.9,0.3-4.6,0.5C277.8,392.6,277.7,393.8,277.5,395.1z"/>
	<path fill="#F4D78A" d="M367.2,384.7c0.1-0.6,0.2-1.2,0.3-1.8c-3.2,0-5.5-5.2-9.8-1c1.8,0.4,3.1,0.8,4.5,1.1c0,0.2-0.1,0.4-0.1,0.6
		c-1.9,0-3.9,0-5.8,0c0,0.3,0,0.7,0,1C359.9,384.7,363.6,384.7,367.2,384.7z"/>
</g>
<g>
	<path fill="#ECCF81" d="M307.2,373.6c-3.4,4.4-5.7-0.6-8.5-1.1c-2.9-0.6-5.7-1.9-8.5-2.9c-0.6-1.2-1.3-2.3-1.9-3.5
		c1.6-0.4,3.4-1.6,4.6-1.1c2.9,1.1,5.3,3.1,8.9,3.1C303.6,368.2,305.4,371.7,307.2,373.6z"/>
	<path fill="#ECCF81" d="M313.2,375.6c-0.7-0.7-1.3-1.3-2-2c4,0,8-0.6,11.8,0.2c2.6,0.6,4.7,3.1,7.1,4.8c-0.2,0.5-0.4,1-0.6,1.6
		c-2.4,0.2-4.7,0.3-7,0.5c-1.4-2.9-1.6-7.6-6.4-3.5C315.8,377.5,314.2,376.2,313.2,375.6z"/>
	<path fill="#ECCF81" d="M361.9,396.6c-5.6-0.1-11.7,1.5-14.9-5c3,0.7,7.6,1.8,15.2,3.7C362.1,395.7,362,396.1,361.9,396.6z"/>
	<path fill="#ECCF81" d="M306.2,383.6c2.3,0.3,4.7,0.7,7,1c2.5,1.7,4.9,3.3,8.4,5.7C314,391.4,310.9,385.6,306.2,383.6z"/>
	<path fill="#ECCF81" d="M322.9,391.2c0.1-1.2,0.3-2.5,0.4-3.7c1.7-0.2,3.1-0.4,4.6-0.5c-0.2,0.3-0.3,0.6-0.5,0.9
		c2.2,1.6,4.4,3.3,7.7,5.7C330.5,392.7,326.8,392,322.9,391.2z"/>
	<path fill="#ECCF81" d="M366.2,382.7c-3.6,0-7.3,0-10.9,0c0-0.3,0-0.7,0-1c1.9,0,3.9,0,5.8,0c0-0.2,0.1-0.4,0.1-0.6
		c-1.3-0.3-2.7-0.7-4.5-1.1c4.3-4.3,6.6,1,9.8,1C366.4,381.5,366.3,382.1,366.2,382.7z"/>
	<path fill="#ECCF81" d="M291.2,379.6c-0.7-0.7-1.3-1.3-2-2c4.5-1,9-2.1,13,2c-1.4,0-2.7,0-4,0C295.8,379.6,293.5,379.6,291.2,379.6
		z"/>
</g>
<g>
	<path fill="#DDAB76" d="M348.2,274.3l-9.9-0.9l-8.4,96.1c2.6,1.8,5.9,3.3,9.6,4.3L348.2,274.3z"/>
	<path fill="#C49C5E" d="M351.8,274.6l-3.6-0.3l-8.7,99.5c1.1,0.3,2.3,0.5,3.5,0.7l3.3-37.6L351.8,274.6z"/>
	<polygon fill="#DDAB76" points="341.7,231.1 342.8,218.7 352.6,219.6 351.4,233 	"/>
	<polygon fill="#C49C5E" points="351.4,233 352.6,219.6 356.2,219.9 355,233.3 	"/>
	
		<rect x="326.4" y="188.6" transform="matrix(8.715574e-02 -0.9962 0.9962 8.715574e-02 65.2998 577.6846)" fill="#C49C5E" width="42.9" height="129.3"/>
	
		<rect x="323.1" y="185" transform="matrix(8.715574e-02 -0.9962 0.9962 8.715574e-02 65.8761 571.1111)" fill="#DDAB76" width="42.9" height="129.3"/>
	<g>
		<path fill="#59421E" d="M298.3,253.8c-0.1-0.1-0.1-0.2-0.3-0.3c-0.1,0.6-0.3,3.4-0.9,3.5c-0.4-0.4,0.1-1.9,0.2-2.4
			c0.1-0.7,0.4-1.7,0.3-2.4c-0.1-0.7-0.7-1.5-1-2.2c-0.4-0.9-1.1-1.7-1.7-2.6c-0.2,0.3-0.2,0.9-0.2,1.3c-0.1,0.9-0.1,1.8-0.2,2.7
			c0,0.5,0,0.9-0.2,1.4c-0.2,0.5-0.4,0.7-0.9,1.1c-0.4,0.3-1.7,1.3-2.1,0.4c-0.1-0.2,0-1.1,0-1.5c0-0.6,0.1-1.1,0.2-1.7
			c0.2-2.6,0.3-5.3,0.1-7.9c0-0.5-0.2-1.2-0.1-1.7c0-0.1,0.3-0.6,0.3-0.7c0.1-0.3,0.1-0.4,0.4-0.6c0.5-0.4,1.5-1,2.1-0.5
			c0.5,0.4,0.6,1.4,0.9,2c0.4,0.7,0.9,1.4,1.3,2.1c0.9,1.4,1.9,2.9,2.9,4.3c0.1-0.5,0-1,0-1.5c0-0.9,0-1.9,0-2.8c0-1,0.1-2.1,0-3.1
			c0-0.4,0-0.5-0.2-0.7c-0.3-0.3-0.4-0.2-0.4-0.6c0-1.1,1.6-2.1,2.5-2.4c0.4-0.1,0.8-0.2,1.1,0.2c0.4,0.6,0.1,1.8,0.1,2.4
			c0,4.4,0,8.7,0.2,13c0,1.1,0.1,2.2,0.2,3.3c0,0.8,0.3,1.7-0.4,2.3c-0.4,0.4-1.1,0.9-1.7,1c-0.6,0.1-0.8-0.4-1-1
			c-0.2-0.4-0.6-2.6-1-2.7c-0.4-0.1-0.4,0.6-0.4,1c-0.2,1.1-0.3,2.4-0.9,3.3c0.1-0.9,0.2-1.9,0.4-2.8
			C298,256.1,298.6,254.5,298.3,253.8z"/>
		<path fill="#59421E" d="M309.2,255.1c-0.7-0.1-1.7-0.7-2.2-1.1c-0.8-0.6-1.5-1.5-2.1-2.3c-0.8-1.2-1-2.4-0.9-3.8
			c0.1-1.6,0.7-2.8,1.9-3.9c1.3-1.2,2.7-1.9,4.5-1.8c0.5,0,1,0,1.5,0.2c0.4,0.1,0.7,0.3,1,0.5c0.5,0.4,0.3,0.7,0.5,1.3
			c0.2,0.8,0.8,1.4,1.2,2.2c0.4,0.8,0.8,1.7,0.9,2.6c0.3,1.3,0,2.7-0.7,3.8c-0.5,0.7-1.1,1.2-1.8,1.7c-0.3,0.2-0.5,0.3-0.8,0.5
			c-0.2,0.1-0.5,0.1-0.7,0.3c-0.1,0.1-0.3,0.6-0.4,0.6c-0.4,0.1-0.5-1.3-1.1-0.5c-0.3,0.4-0.3,1.6-0.4,2.1c0,0.2-0.1,1.2-0.4,1
			c-0.2-0.2-0.2-1.4-0.2-1.6C309.2,256.4,309.2,255.8,309.2,255.1z M306.7,247.1c-0.1,1.4,1.2,3.2,2.1,4c0.5,0.5,1.2,0.8,1.8,1.1
			c0.6,0.3,1.3,0.3,2,0.4c0.1-1.3-0.1-2.3-0.5-3.5c-0.2-0.5-0.4-1-0.6-1.5c-0.2-0.3-0.9-1.1-0.9-1.4c-0.1,0.3-0.3,2.2-0.7,2.1
			c-0.5-0.1-0.1-2.2-0.1-2.6c-0.1-0.8-0.3-0.7-0.9-0.5c-0.3,0.1-0.5,0.3-0.8,0.2c-0.3,0-0.5-0.5-0.6-0.6
			C306.8,245,306.8,246.7,306.7,247.1z"/>
		<path fill="#59421E" d="M329.6,257.6c-0.6,0-0.8,0.5-1,1c0-0.3,0-0.6,0-0.9c0-0.5,0-0.4-0.3-0.6c-0.5-0.3-1.1-0.5-1.6-0.8
			c-0.8-0.5-1.8-1.3-2.4-2.1c-0.7-0.9-1.2-1.8-1.3-3c-0.1-0.5,0.1-1,0.2-1.5c0-0.1,0.1-0.5,0.2-0.6c0.3-0.2,0.5,0.3,0.8,0.2
			c0.1-0.4-1.5-1.2-1.8-1.6c-0.5-0.7-0.7-1.4-0.8-2.2c-0.3-2-0.8-5,1.9-5.6c2.5-0.6,5.4,0.9,7.3,2.3c1,0.8,2,1.7,2.7,2.7
			c0.5,0.7,1.4,2.1,1.1,3c-0.4-0.6-0.5,0.1-0.8,0.4c-0.2,0.2-0.8,0.7-1.1,0.7c-0.2,0-0.6-0.1-0.8-0.2c-0.3-0.2-0.3-0.3-0.4-0.7
			c0-0.1-0.1-0.5-0.1-0.5c0.1-0.4,0.4-0.5,0.4-1c-0.1-0.5-0.5-0.7-0.8-1.1c-0.2-0.2-1.8-2.4-1.6-2.6c-0.3,0.5-0.4,1.3-0.5,1.9
			c-0.2,0.7-0.6,1.5-0.6,2.2c0,1.1,2.1,1.8,3,2.1c1.8,0.8,3.8,2.7,4.9,4.3c0.6,0.9,0.9,1.9,0.1,2.8c-0.7,0.8-1.6,1.1-2.6,1.3
			c-0.5,0.1-0.9,0.2-1.4,0.2c-0.4,0-1.3-0.3-1.7-0.2c-0.3,0.1-0.3,1.3-0.4,1.7c0,0.3-0.1,2.2-0.4,2.3c-0.1,0,0.1-1.4,0-1.7
			c0-0.8-0.3-1.9,0-2.6C329.8,257.6,329.7,257.6,329.6,257.6z M324.9,243.6c-0.4,1-0.1,1.6,0.7,2.3c0.6,0.5,1.4,1.5,2.2,1.8
			c0-0.4,1.2-4.8,1.1-4.8c-0.2,0-0.4,1.2-0.7,1.4c0-0.3,0-0.5,0-0.8c0.1-0.4,0.3,0,0.1-0.5c-0.1-0.1-0.5-0.3-0.6-0.4
			C326.8,242.4,325,242.3,324.9,243.6z M326.2,249.7c0,0.2-0.1,0.1-0.1,0.2c0,0.1,0.1,0.5,0.1,0.7c0.1,0.4,0.4,0.8,0.6,1.1
			c0.5,0.7,0.9,1.3,1.6,1.8c0.7,0.6,1.5,1.1,2.4,1.4c0.4,0.2,2,0.9,2.4,0.5c-0.5-0.3-0.9-1-1.3-1.4c-0.6-0.6-1.2-1.2-1.9-1.7
			c-1.2-1-2.6-1.7-3.7-2.8C326.2,249.6,326.2,249.6,326.2,249.7z"/>
		<path fill="#59421E" d="M339.8,258.1c-0.3-0.1-0.5,0.1-0.6,0.3c-0.1,0.1-0.3,0.7-0.4,0.9c-0.4-0.2-0.1-0.8-0.2-1.1
			c-0.1-0.2-0.3-0.4-0.5-0.6c-0.5-0.5-0.9-1-1.1-1.8c-0.2-1-0.2-2-0.2-3c0.2-2.1,0.3-4.2,0.6-6.2c0.2-1.1,0-2.2,0.7-3.1
			c0.4-0.5,1.6-1.7,2.3-1.1c0.7,0.5-0.2,2.7-0.2,3.3c-0.1,1.1-0.2,2.2-0.3,3.2c-0.1,1.6-0.7,3.7,0,5.2c0.2,0.4,0.6,1.2,1.2,1.1
			c0.6-0.1,1.1-1.2,1.3-1.7c0.3-0.5,0.6-1,0.7-1.6c0.1-0.7,0-1.4-0.1-2.2c-0.1-1.1-0.1-2.1,0-3.1c0-0.4,0-0.9,0.1-1.3
			c0.2-0.6,0.9-1.2,1.5-1.6c1.3-0.8,1.6,0.5,1.8,1.6c0.2,1.2,0.4,2.6,0.1,3.8c-0.1,0.5-0.3,1.1-0.3,1.7c0,0.8,0.3,1.8,0.5,2.7
			c0.2,1,0.4,2.1,0.8,3c0.2,0.5,0.5,0.8,0.4,1.4c-0.2,0.8-1.7,2.3-2.7,1.7c-0.6-0.4-0.7-1.6-0.9-2.3c-0.2-0.7-0.5-1.4-0.7-2.1
			c0,0.3-0.9,1-1.1,1.2c-0.4,0.4-1.3,0.7-1.7,1.2c-0.3,0.4-0.3,1.3-0.4,1.9c0,0.3-0.1,1.5-0.4,1.6c0-0.4-0.1-1.1-0.2-1.5
			C340,259.2,340.1,258.1,339.8,258.1z"/>
		<path fill="#59421E" d="M350.7,259c-0.3,0.1-0.4,0.9-0.4,1.1c-0.2-0.4-0.1-0.9-0.2-1.3c-0.1-0.4-0.3-0.8-0.4-1.1
			c-0.3-1-0.3-2-0.4-3c-0.1-1.5-0.3-3-0.4-4.5c-0.1-0.9,0-2-0.3-2.9c-0.2-0.6-0.4-1-0.3-1.7c0.2-0.8,0.9-1.5,1.7-1.8
			c0.8-0.3,1.1-0.1,1.3,0.7c0.2,0.8,0.5,1.9,0.5,2.8c0.8-1.1,2.6-2.2,4-2.4c1.1-0.1,3.1,0.1,3,1.5c0,0.5-0.1,0.8-0.4,1.2
			c-0.6,0.7-0.6,1.4-0.7,2.4c-0.1,0.9-0.2,1.8-0.3,2.7c-0.1,0.7-0.5,1.4-0.6,2.1c0.1-1.6,0.3-3.1,0.4-4.7c0-0.4,0.3-1.3,0.1-1.6
			c-0.6-1-0.9,1.6-1.3,1.5c-0.5-0.9,0.4-2.2-0.9-2.4c-0.9-0.1-1.2,0.1-1.6,1c-0.4,1.2-0.4,2.9-0.5,4.1c-0.1,1.6,0.3,3.4-0.7,4.8
			c-0.3,0.4-0.8,0.8-0.9,1.3c-0.2,0.6-0.2,1.5-0.3,2.1c-0.1,0.7-0.2,1.3-0.3,2c-0.1,0.3-0.1,1.3-0.5,1.4c0.1-0.9,0-1.8,0.1-2.7
			c0.1-0.9,0.2-1.9,0.2-2.8C350.8,258.9,350.7,258.9,350.7,259z"/>
		<path fill="#59421E" d="M358.1,250.2c0-0.4,0.3-0.6,0.4-1c0.1-0.4,0.1-0.9,0.1-1.4c0-1.1,0.2-2.2,0.6-3.2c0.6-2,2.1-3.9,4.2-4.5
			c2.1-0.7,4.7,0.5,5.8,2.3c0.4,0.7,0.4,1.2-0.1,1.7c-0.4,0.4-0.7,0.5-1.1,0.8c-0.4,0.2-0.6,0.7-0.9,1.1c-0.2-0.3-0.2-1.6-0.9-1.4
			c-0.2,0-0.7,1.7-0.9,2c-0.3-1.1,0.9-2.4,0.2-3.2c-0.4-0.5-1.2-0.9-1.8-1.1c-0.7-0.1-1,0.4-1.2,1c-0.3,0.8-0.5,1.8-0.7,2.6
			c-0.1,0.6-0.3,1.9,0,2.3c0.4,0.6,2,0.3,2.6,0.3c0.6,0,1.2,0.1,1.8,0.1c0.5,0,2.1,0.1,2.4,0.6c0.3,0.5-0.5,1.1-0.8,1.4
			c-0.8,0.6-1.5,0.7-2.4,0.5c-0.9-0.2-1.8-0.3-2.7-0.3c-0.3,0-0.6,0.1-0.8,0.3c-0.2,0.3,0.1,1.3,0.2,1.7c0.1,1.1,0.3,2.2,0.5,3.2
			c0.2,0.8,0.6,2,0.4,2.8c-0.2,0.7-0.9,1.1-1.6,1.3c-0.8,0.3-1.5,0.1-1.7-0.8c-0.2-1.2-0.3-2.4-0.5-3.6c-0.2-1.2-0.3-2.4-0.5-3.5
			c-0.1-0.5,0-0.9-0.3-1.3C358.1,250.6,358.1,250.7,358.1,250.2z"/>
		<path fill="#59421E" d="M370,240.9c0.1-0.6,1-1.1,1.5-1.3c0.4-0.1,0.8-0.2,1.1,0c0.5,0.2,0.4,0.5,0.4,1c0,1-0.1,2.1-0.1,3.1
			c-0.1,1,0,1.9-0.5,2.7c-0.4,0.6-1.3,1-2,1.1c-0.7,0.2-0.9-0.1-0.9-0.8C369.7,244.9,369.8,242.9,370,240.9z M369.7,264
			c0.1-0.9,0.2-1.7,0.2-2.6c0-0.6,0-0.3-0.5-0.8c-0.4-0.4-0.3-1-0.4-1.6c-0.3-2.4-0.1-5.1,0.1-7.5c0.1-1.2,0.3-2,1.4-2.6
			c0.3-0.2,0.8-0.3,1.1-0.2c0.6,0.2,0.3,1.2,0.3,1.7c-0.1,1.8-0.1,3.6-0.1,5.4c0,1,0.3,2.2,0,3.2c-0.2,0.6-0.7,0.9-0.9,1.5
			c-0.3,1-0.3,2.1-0.4,3.1c-0.1,0.8-0.2,1.6-0.5,2.4c-0.1,0.3-0.2,1.6-0.6,1.7c0.1-0.7,0.1-1.3,0.2-2
			C369.7,265.4,370,264.3,369.7,264z"/>
		<path fill="#59421E" d="M375,261c-0.4-0.7-0.3-1.8-0.4-2.6c-0.1-1.2,0-2.3,0-3.5c0-1.4,0-2.8,0-4.2c0-0.6,0-1.2-0.1-1.8
			c-0.1-0.4-0.3-0.8-0.3-1.2c-0.1-1.2,2.4-3.2,3.1-1.8c0.4,0.7,0.3,1.8,0.3,2.6c0,0.7-0.2,2.2,0.3,2.8c1.3-1.1,2.7-3.4,4.7-3.2
			c1.6,0.2,1.7,3.4,1.9,4.6c0.2,0.9,0.4,1.9,0.6,2.9c0.2,1.3,0.2,2.5,0.4,3.8c0.1,0.8,0.2,1.2-0.4,1.8c-0.7,0.8-1,1.3-1.1,2.3
			c0,0-0.2-1.1-0.2-1.2c-0.2-0.2-0.4-0.1-0.7-0.1c-0.8-0.1-0.6-1.2-0.7-1.9c-0.1-1.4-0.2-2.8-0.4-4.1c-0.2-1.3-0.6-2.5-0.8-3.8
			c-0.1,1.3-0.3,2.7-0.5,4c-0.1,0.6-0.2,2.3-0.7,2.7c0.2-2.7,0.5-5.3,0.7-8c-0.8,0.7-1.4,1.9-1.8,2.8c-0.5,1.2-0.6,2.4-0.7,3.6
			c-0.1,0.6,0,1.3-0.3,1.9c-0.2,0.4-0.6,0.7-1,1c-0.5,0.4-0.6,0.6-0.8,1.2c-0.1,0.3-0.5,0.9-0.5,1.2c0.1-0.6,0.2-1.2,0.3-1.7
			c-0.4,0.6-0.4,1.4-0.7,2.1c-0.1,0.4-0.3,0.7-0.5,1.1C374.8,263.5,375.4,261.8,375,261z"/>
		<path fill="#59421E" d="M393,269.1c-0.2,0-0.4-0.3-0.7-0.3c-0.2,0-0.2,0.2-0.4,0.2c-0.1,0-0.3-0.4-0.4-0.4
			c-0.2-0.2-0.6-0.3-0.8-0.5c-1.2-0.8-2.1-1.9-2.5-3.2c-0.3-1-0.8-2.5-0.3-3.5c0.4-0.8,1.6-0.8,2.1-1.4c-0.5,0-0.8-0.5-1.2-0.8
			c-0.4-0.4-0.9-0.7-1.2-1.2c-0.5-0.7-0.8-1.6-1-2.4c-0.2-0.9-0.2-1.6,0-2.4c0.2-0.9,0.3-1.9,0.8-2.6c0.5-0.7,1.1-1.5,1.8-1.9
			c0.8-0.5,1.9-1.2,2.9-1.4c0.7-0.1,1.4-0.2,2.1-0.1c0.4,0,1,0.3,1.4,0.2c0.4-0.1,0.5-0.7,0.7-1.1c0.4-0.8,2.2-2.4,3-1.2
			c0.2,0.4,0.1,1,0.1,1.4c0,0.6,0,1.2,0,1.8c-0.1,1-0.1,2-0.2,3c-0.1,1.2-0.4,2.3-0.7,3.5c-0.1,0.4-0.3,0.9-0.3,1.3
			c0,0.5,0,1,0.1,1.5c0.1,2,0.4,4.1,0.1,6.1c-0.3,2.1-1.1,4-3.2,4.8c-0.5,0.2-1.1,0.2-1.4,0.6c-0.4,0.4-0.5,1.2-0.7,1.7
			c-0.1,0.3-0.2,0.6-0.4,0.4C392.6,270.7,393,269.4,393,269.1z M389.9,251.5c-0.1,0.9-0.3,1.6-0.2,2.5c0.1,0.7,0.5,1.5,0.9,2.1
			c0.4,0.6,0.8,0.9,1.3,1.3c0.3,0.3,0.4,0.2,0.8,0.3c0.3,0.1,1.1,0.5,1.4,0.4c0.5-0.2,0.8-1.1,0.9-1.6c0.2-1,0.2-2,0.2-3
			c0-0.5-0.1-1-0.1-1.5c0-0.4,0.2-1,0-1.4c-0.1-0.4-0.3-0.5-0.6-0.7c-0.2-0.1-0.8-0.3-0.9-0.5c-0.4,1.4-0.8,2.9-1.2,4.3
			c0,0.1-0.1,0.5-0.2,0.6c-0.4,0.3-0.2-0.9-0.2-1c0.2-1.4,0.6-2.8,0.9-4.1c-0.8,0.4-0.3,2.1-1.2,2.3c0.1-0.7,0-1.6,0.3-2.2
			C391,248.9,390,250.5,389.9,251.5z M390.6,260.4c0.4,1.8,0.7,4,2.2,5.3c0.4,0.3,1.5,0.9,2,0.6c0.3-0.3,0.3-0.7,0.4-1.1
			c0.1-0.4,0.2-0.7,0.2-1.2c0-1,0-2.1,0-3.1c0-0.4,0.2-1.1-0.2-1.3c-0.1,0-1.1,0.4-1.3,0.5c-0.4,0.1-0.8,0.3-1.1,0.3
			C392.1,260.5,391.4,260.5,390.6,260.4z"/>
	</g>
</g>
</svg>
