<?xml version="1.0" encoding="UTF-8" standalone="no"?>
<svg width="38px" height="38px" viewBox="0 0 38 38" version="1.1" xmlns="http://www.w3.org/2000/svg" xmlns:xlink="http://www.w3.org/1999/xlink">
    <defs></defs>
    <g id="Page-1" stroke="none" stroke-width="1" fill="none" fill-rule="evenodd">
        <g id="Artboard-1-Copy" transform="translate(-31.000000, -31.000000)" fill="#dd3939">
            <path d="M31,36.0069123 C31,33.241671 33.2352052,31 36.0069123,31 L63.9930877,31 C66.758329,31 69,33.2352052 69,36.0069123 L69,63.9930877 C69,66.758329 66.7647948,69 63.9930877,69 L36.0069123,69 C33.241671,69 31,66.7647948 31,63.9930877 L31,36.0069123 Z M51.6585765,60.6625 C51.6585765,61.26625 51.1730228,61.75625 50.5747512,61.75625 L48.4071007,61.75625 C47.8088291,61.75625 47.3232754,61.26625 47.3232754,60.6625 L47.3232754,58.475 C47.3232754,57.87125 47.8088291,57.38125 48.4071007,57.38125 L50.5747512,57.38125 C51.1730228,57.38125 51.6585765,57.87125 51.6585765,58.475 L51.6585765,60.6625 L51.6585765,60.6625 Z M51.6585765,53.96875 C51.6585765,54.5725 51.1730228,55.0625 50.5747512,55.0625 L48.4071007,55.0625 C47.8088291,55.0625 47.3232754,54.5725 47.3232754,53.96875 L47.3232754,40.84375 C47.3232754,40.24 47.8088291,39.75 48.4071007,39.75 L50.5747512,39.75 C51.1730228,39.75 51.6585765,40.24 51.6585765,40.84375 L51.6585765,53.96875 L51.6585765,53.96875 Z" id="Exclamation_Point_1_x2C__Caution_1_x2C__Warning_1"></path>
        </g>
    </g>
</svg>