<?xml version="1.0" encoding="UTF-8"?>
<svg width="19px" height="19px" viewBox="0 0 19 19" version="1.1" xmlns="http://www.w3.org/2000/svg" xmlns:xlink="http://www.w3.org/1999/xlink">
    <title>basis / info</title>
    <defs>
        <path d="M9.188925,-7.5e-05 C9.985425,-7.5e-05 10.727175,0.461925 11.078175,1.176675 L11.078175,1.176675 L18.182175,15.650175 C18.473175,16.238925 18.438675,16.925925 18.089925,17.484675 C17.743425,18.041925 17.143425,18.374925 16.484925,18.374925 L16.484925,18.374925 L1.892925,18.374925 C1.235925,18.374925 0.635175,18.041925 0.287175,17.484675 C-0.060075,16.925925 -0.094575,16.239675 0.195675,15.649425 L0.195675,15.649425 L7.300425,1.176675 C7.651425,0.461925 8.392425,-7.5e-05 9.188925,-7.5e-05 Z M9.188925,1.499925 C8.960175,1.499925 8.747175,1.632675 8.645925,1.838175 L8.645925,1.838175 L1.541925,16.310925 C1.481925,16.433925 1.488675,16.575675 1.560675,16.691175 C1.631925,16.805925 1.756425,16.874925 1.892925,16.874925 L1.892925,16.874925 L16.484925,16.874925 C16.620675,16.874925 16.745175,16.805925 16.816425,16.691925 C16.889175,16.575675 16.895925,16.433925 16.835925,16.312425 L16.835925,16.312425 L9.731925,1.837425 C9.630675,1.632675 9.417675,1.499925 9.188925,1.499925 Z M9.189,13.5 C9.7575,13.5 10.22025,13.96275 10.22025,14.53125 C10.22025,15.09975 9.7575,15.5625 9.189,15.5625 C8.6205,15.5625 8.15775,15.09975 8.15775,14.53125 C8.15775,13.96275 8.6205,13.5 9.189,13.5 Z M9.189,5.625 C9.5685,5.625 9.88245833,5.90733333 9.93214931,6.27327431 L9.939,6.375 L9.939,12 C9.939,12.41475 9.603,12.75 9.189,12.75 C8.8095,12.75 8.49554167,12.4682969 8.44585069,12.1018832 L8.439,12 L8.439,6.375 C8.439,5.961 8.775,5.625 9.189,5.625 Z" id="path-1"></path>
    </defs>
    <g id="Symbols" stroke="none" stroke-width="1" fill="none" fill-rule="evenodd">
        <g id="form-/-02-input-field-with-label-/-04-error" transform="translate(-3.000000, -89.000000)">
            <g id="basis-/-info" transform="translate(3.000000, 89.000000)">
                <mask id="mask-2" fill="white">
                    <use xlink:href="#path-1"></use>
                </mask>
                <g id="*Colors-/-basic-/-02-aqua-/-04-#00857B-TEXT+ICON-LINK" mask="url(#mask-2)">
                    <g transform="translate(-3.000000, -3.000000)">
                        <rect id="Rectangle" fill="#FFFFFF" x="0" y="0" width="24" height="24"></rect>
                        <g id="Colors/Gray-900-Copy" stroke-width="1" fill="none">
                            <path d="M0,0 L24,0 L24,24 L0,24 L0,0 Z" id="Colors/Red-900" fill="#FF0000"></path>
                        </g>
                    </g>
                </g>
            </g>
        </g>
    </g>
</svg>
