<svg xmlns="http://www.w3.org/2000/svg" xmlns:xlink="http://www.w3.org/1999/xlink" width="18" height="18" viewBox="0 0 32 32">
    <defs>
        <path id="a" d="M12.252 0c1.062 0 2.05.616 2.519 1.569l9.472 19.298a2.501 2.501 0 0 1-.123 2.446 2.504 2.504 0 0 1-2.14 1.187H2.524a2.51 2.51 0 0 1-2.141-1.187 2.51 2.51 0 0 1-.122-2.447L9.734 1.569a2.823 2.823 0 0 1 2.518-1.57zm0 2a.813.813 0 0 0-.724.45L2.056 21.749a.52.52 0 0 0 .468.752H21.98a.52.52 0 0 0 .468-.75l-9.472-19.3a.813.813 0 0 0-.724-.45zm0 16c.758 0 1.375.617 1.375 1.375s-.617 1.375-1.375 1.375a1.377 1.377 0 0 1-1.375-1.375c0-.758.617-1.375 1.375-1.375zm0-10.5a1 1 0 0 1 .993.883l.007.117V16a1 1 0 0 1-1.993.117L11.252 16V8.5a1 1 0 0 1 1-1z"/>
    </defs>
    <g fill="none" fill-rule="evenodd" transform="translate(4 4)">
        <path fill="#FFF" d="M1 21.445L11.43 1h1.634l9.966 20.445-.716 1.644h-20.5z"/>
        <mask id="b" fill="#fff">
            <use xlink:href="#a"/>
        </mask>
        <use fill="#000" xlink:href="#a"/>
        <g mask="url(#b)">
            <path fill="#FFF" d="M-4-4h32v32H-4z"/>
            <path fill="#ff0000" d="M-4-4h32v32H-4V-4z"/>
        </g>
    </g>
</svg>
