<svg width="36" height="36" viewBox="0 0 36 36" fill="none" xmlns="http://www.w3.org/2000/svg" aria-hidden="true">
    <path fill-rule="evenodd" clip-rule="evenodd" d="M15.75 25.875C15.75 31.458 20.292 36 25.875 36C31.458 36 36 31.458 36 25.875C36 20.292 31.458 15.75 25.875 15.75C20.292 15.75 15.75 20.292 15.75 25.875ZM18 25.875C18 21.5325 21.5325 18 25.875 18C30.2175 18 33.75 21.5325 33.75 25.875C33.75 30.2175 30.2175 33.75 25.875 33.75C21.5325 33.75 18 30.2175 18 25.875Z" fill="black"/>
    <path d="M25.875 31.5C25.254 31.5 24.75 30.996 24.75 30.375V25.875C24.75 25.254 25.254 24.75 25.875 24.75C26.496 24.75 27 25.254 27 25.875V30.375C27 30.996 26.496 31.5 25.875 31.5Z" fill="black"/>
    <circle cx="25.875" cy="22.0293" r="1.6875" fill="black"/>
    <path d="M5.625 11.25C5.004 11.25 4.5 10.746 4.5 10.125C4.5 9.504 5.004 9 5.625 9H21.375C21.996 9 22.5 9.504 22.5 10.125C22.5 10.746 21.996 11.25 21.375 11.25H5.625Z" fill="black"/>
    <path d="M5.625 18C5.004 18 4.5 17.496 4.5 16.875C4.5 16.254 5.004 15.75 5.625 15.75H14.625C15.246 15.75 15.75 16.254 15.75 16.875C15.75 17.496 15.246 18 14.625 18H5.625Z" fill="black"/>
    <path d="M5.625 24.75C5.004 24.75 4.5 24.246 4.5 23.625C4.5 23.004 5.004 22.5 5.625 22.5H11.25C11.871 22.5 12.375 23.004 12.375 23.625C12.375 24.246 11.871 24.75 11.25 24.75H5.625Z" fill="black"/>
    <path d="M3.375 31.5C1.5135 31.5 0 29.9865 0 28.125V3.375C0 1.5135 1.5135 0 3.375 0H19.3185C20.22 0 21.066 0.351 21.7035 0.987L26.0115 5.295C26.649 5.9325 27 6.78 27 7.6815V11.25C27 11.871 26.496 12.375 25.875 12.375C25.254 12.375 24.75 11.871 24.75 11.25V7.6815C24.75 7.386 24.63 7.0965 24.4215 6.8865L20.1135 2.5785C19.9005 2.367 19.6185 2.25 19.3185 2.25H3.375C2.754 2.25 2.25 2.754 2.25 3.375V28.125C2.25 28.746 2.754 29.25 3.375 29.25H11.25C11.871 29.25 12.375 29.754 12.375 30.375C12.375 30.996 11.871 31.5 11.25 31.5H3.375Z" fill="black"/>
</svg>
