<svg width="32" height="36" viewBox="0 0 32 36" fill="none" xmlns="http://www.w3.org/2000/svg" aria-hidden="true" focusable="false">
    <path fill-rule="evenodd" clip-rule="evenodd" d="M13.9489 35.625C14.6072 35.874 15.2975 36 16 36C16.7024 36 17.3927 35.874 18.051 35.625L19.6373 35.025C27.0323 32.2247 31.9998 25.1045 31.9998 17.3063V5.89325C32.009 4.57481 31.2242 3.36736 29.9915 2.81238C25.6502 0.946461 21.0407 0 16.2941 0L16.0106 0.00149994L15.6769 0C10.9501 0 6.34825 0.94646 1.99019 2.81988C0.774198 3.36736 -0.00750938 4.57181 0.0001096 5.88575V17.3063C0.0001096 25.1045 4.96769 32.2247 12.3627 35.025L13.9489 35.625ZM2.92275 4.8733C6.97453 3.13337 11.2716 2.24991 15.6952 2.24991L16.0106 2.25141L16.2956 2.24991C20.7253 2.24991 25.0224 3.13037 29.0589 4.8658C29.4597 5.04729 29.7172 5.44627 29.7141 5.88575V17.3063C29.7141 24.1805 25.3348 30.4562 18.8175 32.9266L17.2312 33.5266C16.835 33.6751 16.4221 33.7516 16 33.7516C15.5779 33.7516 15.1649 33.6751 14.7687 33.5251L13.1825 32.9251C6.6652 30.4577 2.2858 24.1805 2.2858 17.3063V5.87825C2.28276 5.44327 2.53723 5.04729 2.92275 4.8733Z" fill="black"/>
    <path d="M13.4987 20.9987C13.0987 20.9987 12.7227 20.8427 12.44 20.5602C12.1573 20.279 12 19.9032 12 19.5033C12 19.1088 12.1507 18.7357 12.4253 18.4531C12.7227 18.1559 13.0987 18 13.4987 18C13.9 18 14.2773 18.1559 14.56 18.4398C14.8427 18.721 14.9987 19.0982 15 19.4993C15 19.8992 14.8453 20.2763 14.5613 20.5602C14.2773 20.8441 13.9013 21 13.5 21H13.4987V20.9987Z" fill="black"/>
    <path fill-rule="evenodd" clip-rule="evenodd" d="M11.5295 26.5085C12.3618 26.8342 13.2326 27 14.1197 27C17.0329 27 19.7016 25.182 20.7635 22.4726C21.3248 21.038 21.4048 19.4554 20.996 17.9779L25.9692 13.0049C26.6342 12.3416 27 11.4578 27 10.5177C27 9.57754 26.6342 8.69369 25.9692 8.03042C25.3043 7.36568 24.4216 7 23.4811 7C22.5407 7 21.6565 7.36716 20.9916 8.0319L16.0199 13.0108C15.4008 12.8406 14.7654 12.7532 14.1271 12.7532C13.1452 12.7532 12.1855 12.9545 11.2747 13.3528C9.53159 14.1138 8.18832 15.5099 7.49521 17.2806C6.80062 19.0527 6.83765 20.9877 7.60037 22.7303C8.3616 24.4728 9.75818 25.8156 11.5295 26.5085ZM9.56269 18.0919C10.2928 16.2294 12.1307 14.9784 14.1345 14.9784C14.7447 14.9784 15.343 15.0924 15.9103 15.313C16.0406 15.3633 16.1768 15.39 16.3175 15.39C16.6108 15.39 16.8966 15.2715 17.104 15.0643L22.56 9.60123C22.8058 9.35547 23.1301 9.22074 23.4782 9.22074C23.8262 9.22074 24.1506 9.35695 24.3964 9.60123C24.6422 9.84699 24.777 10.1712 24.777 10.5191C24.777 10.8671 24.6422 11.1928 24.3964 11.4385L18.9359 16.8986C18.7271 17.1059 18.6101 17.3975 18.6131 17.6966C18.6146 17.8491 18.6472 17.9986 18.699 18.1126C19.1418 19.2585 19.1388 20.5214 18.6916 21.6658C17.9614 23.5282 16.125 24.7793 14.1197 24.7793C13.511 24.7793 12.9112 24.6653 12.3396 24.4417C9.82335 23.4572 8.57783 20.6072 9.56269 18.0919Z" fill="black"/>
</svg>
